<svg width="30" height="33" viewBox="0 0 30 33" fill="none" xmlns="http://www.w3.org/2000/svg">
<path d="M1.5 7.69681L6 1.69681H24L28.5 7.69681M1.5 7.69681V28.6968C1.5 29.4925 1.81607 30.2555 2.37868 30.8181C2.94129 31.3807 3.70435 31.6968 4.5 31.6968H25.5C26.2956 31.6968 27.0587 31.3807 27.6213 30.8181C28.1839 30.2555 28.5 29.4925 28.5 28.6968V7.69681M1.5 7.69681H28.5M21 13.6968C21 15.2881 20.3679 16.8142 19.2426 17.9394C18.1174 19.0647 16.5913 19.6968 15 19.6968C13.4087 19.6968 11.8826 19.0647 10.7574 17.9394C9.63214 16.8142 9 15.2881 9 13.6968" stroke="white" stroke-width="2" stroke-linecap="round" stroke-linejoin="round"/>
</svg>
