<?xml version="1.0" encoding="utf-8"?>
<!-- Generator: Adobe Illustrator 23.0.2, SVG Export Plug-In . SVG Version: 6.00 Build 0)  -->
<svg version="1.1" id="Layer_1" xmlns="http://www.w3.org/2000/svg" xmlns:xlink="http://www.w3.org/1999/xlink" x="0px" y="0px"
	 viewBox="0 0 83.6 100" style="enable-background:new 0 0 83.6 100;" xml:space="preserve">
<style type="text/css">
	.st0{fill-rule:evenodd;clip-rule:evenodd;fill:#0093DD;}
	.st1{fill:#1F1A17;}
	.st2{fill-rule:evenodd;clip-rule:evenodd;fill:#1F1A17;}
	.st3{fill:none;stroke:#DA251D;stroke-width:7.963794e-02;stroke-linejoin:round;stroke-miterlimit:10;}
	.st4{fill-rule:evenodd;clip-rule:evenodd;fill:#FFFFFF;}
	.st5{fill-rule:evenodd;clip-rule:evenodd;fill:#DA251D;}
	.st6{fill-rule:evenodd;clip-rule:evenodd;fill:#FF6600;}
	.st7{fill-rule:evenodd;clip-rule:evenodd;fill:#DD137B;}
	.st8{fill-rule:evenodd;clip-rule:evenodd;fill:#FFF500;}
	.st9{fill-rule:evenodd;clip-rule:evenodd;fill:#F0BE68;}
	.st10{fill-rule:evenodd;clip-rule:evenodd;fill:#EDDE00;}
	.st11{fill-rule:evenodd;clip-rule:evenodd;fill:#191919;}
	.st12{fill-rule:evenodd;clip-rule:evenodd;fill:#FFFF00;}
	.st13{fill:none;stroke:#1F1A17;stroke-width:7.963794e-02;stroke-linejoin:round;stroke-miterlimit:10;}
</style>
<polygon class="st0" points="5.8,0.9 78,0.9 78.5,0.9 79,1 79.5,1.1 79.9,1.3 80.3,1.5 80.7,1.7 81,2 81.3,2.3 81.7,2.6 81.9,2.9 
	82.1,3.3 82.3,3.7 82.5,4.1 82.6,4.5 82.6,4.9 82.7,5.3 82.6,52.6 82.6,55 82.4,57.3 82.2,59.5 81.9,61.7 81.5,63.8 81,65.8 
	80.4,67.8 79.8,69.8 79.1,71.7 78.2,73.5 77.4,75.2 76.4,76.9 75.3,78.5 74.2,80.1 73,81.6 71.8,83.1 70.4,84.5 69,85.9 67.5,87.2 
	65.9,88.4 64.3,89.6 62.6,90.7 60.9,91.9 59.1,92.9 57.1,93.9 55.2,94.8 53.2,95.7 51.1,96.5 49,97.2 46.8,98 44.5,98.6 42.3,99.3 
	39.6,98.5 36.9,97.7 34.4,96.8 32,95.9 29.7,94.9 27.5,93.8 25.4,92.7 23.4,91.5 21.4,90.2 19.6,88.9 17.9,87.6 16.2,86.2 
	14.7,84.8 13.2,83.3 11.8,81.7 10.5,80.2 9.3,78.6 8.2,77 7.1,75.3 6.2,73.7 5.3,71.9 4.6,70.2 3.8,68.5 3.2,66.7 2.7,65 2.2,63.2 
	1.8,61.4 1.5,59.6 1.2,57.8 1.1,56 1,54.3 0.9,52.5 0.9,5.3 0.9,4.9 1,4.5 1.1,4 1.3,3.6 1.5,3.2 1.6,2.9 1.9,2.5 2.2,2.2 2.6,1.9 
	2.9,1.7 3.3,1.4 3.8,1.3 4.2,1.1 4.7,1 5.2,1 "/>
<path class="st1" d="M5.8,0.4v1H5.7H5.5H5.4H5.3l-0.1,0H5.1l-0.1,0H4.8l-0.1,0l-0.1,0H4.5l-0.1,0l-0.1,0l-0.1,0l-0.1,0L4,1.7
	L3.9,1.8l-0.1,0l-0.1,0L3.7,1.9l-0.1,0L3.5,2L3.4,2L3.3,2.1L3.2,2.2L3,2.3L2.9,2.4L2.7,2.5L2.6,2.7L2.5,2.8L2.4,2.9L2.2,3.1L2.1,3.3
	L2,3.4L2,3.6L1.9,3.8L1.8,4L1.7,4.1l0,0.2l0,0.2l0,0.2l0,0.2v0.2v0.2H0.3V5.1V4.9l0-0.2l0-0.2l0-0.2l0.1-0.2l0.1-0.2l0.1-0.2
	l0.1-0.2L0.8,3l0.1-0.2l0.2-0.2l0.1-0.2l0.2-0.2l0.2-0.2l0.2-0.2l0.2-0.2l0.2-0.2l0.2-0.2l0.2-0.2l0.1-0.1l0.1-0.1l0.1-0.1L3,1
	L3.1,1l0.1-0.1l0.1,0l0.2-0.1l0.1,0l0.1-0.1l0.2,0l0.1,0l0.2-0.1l0.1,0l0.2,0h0.1l0.2,0l0.2,0l0.1,0h0.2h0.2l0.2,0h0.2H5.8z
	 M0.3,5.3h1.3l0,47.1H0.3V5.3z M1.6,52.5 M0.3,52.5h1.3v0.5v0.4v0.4v0.5l0,0.4v0.4l0,0.5l0,0.4l0,0.5l0,0.4l0,0.4l0,0.5l0,0.4
	L2,58.7l0,0.4l0.1,0.4L2.2,60l0.1,0.4l0.1,0.5l0.1,0.4l0.1,0.4l0.1,0.5l0.1,0.4l0.1,0.4l0.1,0.5L3.1,64l0.1,0.4l0.1,0.5l0.1,0.4
	l0.2,0.4l0.1,0.4l0.2,0.5L4,67l0.2,0.4l0.2,0.4l0.2,0.4l0.2,0.4l0.2,0.4L5,69.6l0.2,0.4l0.2,0.4l0.2,0.4l0.2,0.4l0.2,0.4l0.2,0.4
	l0.2,0.4L6.6,73l0.2,0.4L7,73.9l0.2,0.4l0.2,0.4l0.2,0.4L8,75.5l0.2,0.4l0.3,0.4l0.3,0.4L9,77.1l0.3,0.4L9.6,78l0.3,0.4l0.3,0.4
	l0.3,0.4l0.3,0.4l0.3,0.4l0.3,0.4l0.3,0.4l0.3,0.4l0.4,0.4l0.3,0.4l0.4,0.4l0.4,0.4l0.3,0.4l0.4,0.4l0.4,0.4l0.4,0.4l0.4,0.3
	l0.4,0.4l0.4,0.4l0.4,0.3l0.4,0.4l0.4,0.3l0.4,0.3l0.4,0.4l0.4,0.3l0.4,0.3l0.4,0.3l0.4,0.3l0.4,0.3l0.4,0.3l0.5,0.3l0.4,0.3
	l0.5,0.3l0.5,0.3l0.5,0.3l0.5,0.3l0.5,0.3l0.5,0.3l0.5,0.3l0.5,0.3l0.5,0.3l0.5,0.3l0.5,0.3l0.5,0.3l0.6,0.3l0.6,0.2l0.5,0.3
	l0.6,0.3l0.6,0.2l0.6,0.2l0.6,0.3l0.6,0.2l0.6,0.2l0.6,0.2l0.6,0.2l0.6,0.2l0.6,0.2l0.6,0.2l0.6,0.2l0.6,0.2l0.6,0.2l0.6,0.2
	l0.6,0.2l0.7,0.2l0.6,0.2l0.7,0.2l0.7,0.2l0.7,0.2l0.7,0.2l-0.4,1l-0.7-0.2l-0.7-0.2L40,99.2L39.3,99l-0.7-0.2L38,98.6l-0.7-0.2
	l-0.6-0.2L36.1,98l-0.7-0.2l-0.6-0.2l-0.6-0.2l-0.6-0.2l-0.6-0.2l-0.6-0.2l-0.6-0.2l-0.6-0.2l-0.6-0.2L30,95.6l-0.6-0.3L28.8,95
	l-0.6-0.2l-0.5-0.3l-0.5-0.3L26.6,94l-0.6-0.3l-0.5-0.3L25,93.1l-0.5-0.3L24,92.5l-0.5-0.3L23,91.9l-0.5-0.3L22,91.3L21.5,91
	L21,90.6l-0.5-0.3L20.1,90l-0.5-0.3l-0.5-0.3L18.7,89l-0.4-0.3l-0.5-0.3l-0.4-0.3L17,87.6l-0.4-0.4l-0.4-0.3l-0.4-0.4l-0.4-0.4
	L15,85.8l-0.4-0.4l-0.4-0.4l-0.4-0.4l-0.4-0.4L13,84l-0.4-0.4l-0.4-0.4L12,82.8l-0.4-0.4L11.3,82l-0.3-0.4l-0.4-0.4l-0.3-0.4
	L10,80.5l-0.3-0.4l-0.3-0.4L9,79.2l-0.3-0.4l-0.3-0.4l-0.3-0.4l-0.3-0.4l-0.3-0.4l-0.3-0.4l-0.3-0.4L6.8,76l-0.3-0.4l-0.2-0.4
	l-0.2-0.4l-0.2-0.4l-0.2-0.4l-0.2-0.4L5.1,73l-0.2-0.5l-0.2-0.4l-0.2-0.4l-0.2-0.4l-0.2-0.4l-0.2-0.4L3.7,70l-0.2-0.5l-0.2-0.4
	l-0.2-0.4l-0.2-0.5l-0.2-0.4l-0.1-0.4l-0.2-0.5l-0.2-0.4L2.3,66l-0.1-0.4L2,65.1l-0.2-0.4l-0.1-0.5l-0.1-0.5l-0.1-0.4l-0.1-0.5
	l-0.1-0.4l-0.1-0.5l-0.1-0.5L1.1,61L1,60.6l-0.1-0.5l-0.1-0.4l-0.1-0.5l0-0.5l-0.1-0.5l0-0.4l0-0.5L0.5,57l0-0.4l0-0.5v-0.5l0-0.4
	l0-0.5v-0.5v-0.4l0-0.5v-0.4V52.5z M42.5,99.8l-0.2,0l-0.2,0H42.5z M42.1,99.8l0.4-1h-0.4l0.6-0.2l0.6-0.2l0.6-0.2l0.6-0.2l0.6-0.2
	l0.6-0.2l0.6-0.2l0.6-0.2l0.6-0.2l0.5-0.2l0.5-0.2l0.6-0.2l0.5-0.2l0.6-0.2l0.5-0.2l0.6-0.2l0.5-0.2l0.5-0.2l0.5-0.2l0.5-0.2
	l0.5-0.2l0.5-0.2l0.5-0.2l0.5-0.2l0.5-0.2l0.5-0.2l0.5-0.2l0.5-0.2l0.5-0.2l0.5-0.2l0.4-0.2l0.5-0.2l0.5-0.2l0.4-0.2l0.5-0.2
	l0.4-0.3l0.4-0.2l0.4-0.3l0.4-0.3l0.4-0.3l0.4-0.2l0.4-0.3l0.4-0.3l0.4-0.3l0.4-0.3l0.4-0.3l0.4-0.3l0.4-0.3l0.4-0.3l0.4-0.3
	l0.4-0.3l0.4-0.3l0.4-0.3l0.4-0.3l0.4-0.3l0.4-0.3l0.3-0.3l0.4-0.3l0.3-0.3l0.3-0.3l0.4-0.3l0.3-0.3l0.3-0.3l0.3-0.4l0.3-0.4
	l0.3-0.3l0.3-0.4l0.3-0.4l0.3-0.4l0.3-0.4l0.3-0.4l0.3-0.4l0.3-0.4l0.3-0.4l0.3-0.4l0.3-0.4l0.2-0.4l0.3-0.4l0.2-0.4l0.3-0.4
	l0.2-0.4l0.2-0.4l0.2-0.4l0.2-0.4l0.2-0.4l0.2-0.4l0.2-0.4l0.2-0.4l0.2-0.5l0.2-0.4l0.2-0.5l0.2-0.5l0.2-0.5l0.2-0.5l0.2-0.5
	l0.2-0.5l0.2-0.5l0.2-0.5l0.2-0.5l0.2-0.5l0.2-0.5l0.2-0.5l0.1-0.5l0.2-0.5l0.1-0.5l0.1-0.5l0.1-0.5l0.1-0.5l0.1-0.5l0.1-0.5
	l0.1-0.5l0.1-0.5l0.1-0.5l0.1-0.6l0.1-0.5l0.1-0.6l0-0.6l0.1-0.6l0-0.6l0-0.6l0-0.6l0-0.6l0-0.6l0-0.6v-0.6l0-0.6v-0.6v-0.6h1.3v0.6
	v0.6v0.6l0,0.6l0,0.6v0.6l0,0.6l0,0.6L83,57.9l0,0.6l0,0.6l-0.1,0.6l-0.1,0.6l-0.1,0.6l-0.1,0.6l-0.1,0.5l-0.1,0.6l-0.1,0.5
	l-0.1,0.6l-0.1,0.5l-0.1,0.5l-0.1,0.5l-0.2,0.5l-0.1,0.5l-0.1,0.5L81.4,67l-0.2,0.5L81.1,68L81,68.5l-0.2,0.5l-0.2,0.5l-0.2,0.5
	l-0.2,0.5l-0.2,0.5l-0.2,0.5l-0.2,0.5l-0.2,0.5l-0.2,0.5l-0.2,0.5l-0.2,0.4l-0.2,0.5l-0.2,0.5L78.2,75L78,75.4l-0.2,0.4l-0.2,0.4
	l-0.3,0.4L77,77.1l-0.3,0.4L76.5,78l-0.3,0.4l-0.3,0.4l-0.3,0.4l-0.3,0.4L75.1,80l-0.3,0.4l-0.3,0.4l-0.3,0.4l-0.3,0.4l-0.3,0.4
	l-0.3,0.4l-0.3,0.4l-0.3,0.4l-0.3,0.4L72,83.8l-0.4,0.4l-0.4,0.4l-0.4,0.3l-0.3,0.4l-0.4,0.3l-0.4,0.3l-0.4,0.3l-0.4,0.3l-0.3,0.3
	l-0.4,0.3L68,87.5l-0.4,0.3l-0.4,0.3l-0.4,0.3l-0.4,0.3L66,89.1l-0.4,0.3l-0.4,0.3L64.7,90l-0.4,0.3l-0.4,0.3l-0.4,0.3L63,91.1
	l-0.4,0.3l-0.4,0.3L61.7,92l-0.5,0.3l-0.5,0.3l-0.4,0.2l-0.5,0.3l-0.5,0.2l-0.5,0.2l-0.5,0.2L58,94l-0.5,0.2L57,94.5l-0.5,0.2L56,95
	l-0.5,0.2L55,95.4l-0.5,0.2L54,95.9l-0.5,0.2L53,96.3l-0.5,0.2l-0.6,0.2l-0.5,0.2l-0.6,0.2l-0.5,0.2l-0.6,0.2l-0.6,0.2l-0.6,0.2
	l-0.5,0.2l-0.6,0.2L47,98.4l-0.6,0.2l-0.6,0.2L45.4,99l-0.6,0.2l-0.6,0.2l-0.6,0.2L43,99.6l-0.6,0.2H42.1z M82,52.6l0-47.2h1.3
	l0,47.2H82z M83.3,5.3H82V5.2V5l0-0.2l0-0.2l0-0.2l0-0.2l-0.1-0.2l-0.1-0.2l-0.1-0.2l-0.1-0.2l-0.1-0.2l-0.1-0.2L81.2,3l-0.1-0.2
	L81,2.7l-0.2-0.2l-0.1-0.1l-0.2-0.2l-0.2-0.1l-0.2-0.1L80.1,2l-0.2-0.1l-0.1,0l-0.1-0.1l-0.1,0l-0.1,0l-0.1,0l-0.1-0.1l-0.1,0
	l-0.1,0l-0.1,0H79l-0.1,0l-0.1,0h-0.1l-0.1,0h-0.1l-0.1,0h-0.1h-0.1l-0.1,0H78v-1h0.1h0.2h0.2l0.1,0h0.2l0.2,0l0.1,0l0.2,0l0.1,0
	l0.1,0l0.2,0l0.1,0l0.1,0.1l0.2,0l0.1,0.1l0.1,0l0.1,0.1l0.1,0.1L80.6,1L80.7,1l0.2,0.1l0.2,0.2l0.2,0.1l0.2,0.2l0.2,0.2l0.2,0.2
	l0.2,0.2l0.2,0.2l0.2,0.2l0.1,0.2l0.1,0.2l0.2,0.2l0.1,0.2L83,3.5L83,3.7L83.1,4l0.1,0.2l0,0.2l0,0.2l0,0.2v0.2V5.3z M78,1.4
	L5.8,1.4v-1l72.3,0V1.4z"/>
<polygon class="st2" points="14.4,2.7 15,3.2 15.5,3.6 16,4.1 16.5,4.5 17.4,5.6 18.3,6.6 19.1,7.7 20,8.7 20.7,9.8 21.5,10.7 
	21.6,10.4 21.8,10.1 22.1,10.1 22.5,10.1 23,10.3 23.4,10.6 24,11.1 24.6,11.6 25.2,12.1 25.9,12.8 26.5,13.6 27.2,14.4 27.9,15.2 
	28.6,16.1 29.4,17 30,18 30.7,18.9 31.4,19.9 31.9,20.9 32.5,21.8 33.1,22.7 33.6,23.6 33.9,24.5 34.3,25.3 34.6,26.1 34.8,26.7 
	34.9,27.3 34.9,27.8 34.8,28.3 34.6,28.6 34.3,28.8 33.9,28.9 34.3,29.5 34.6,30.4 35,31.4 35.3,32.3 35.9,32.1 36.5,32 37,31.8 
	37.5,31.8 38.4,31.7 39.4,31.7 39.5,31.4 39.6,31.1 39.6,30.8 39.6,30.4 39.3,30.4 39,30.4 38.8,30.3 38.6,30.2 38.5,30.2 
	38.4,30.1 38.3,30 38.2,29.8 38.1,29.4 38,29.1 37.7,28.9 37.6,28.7 37.6,28.6 37.6,28.6 37.6,28.5 37.6,28.3 37.6,28.2 37.4,28 
	37.3,27.8 37.1,27.6 37,27.4 36.9,27.2 36.9,27 36.9,26.9 37,26.8 37,26.6 37.4,26.1 37.6,25.8 37.7,25.5 37.8,25.3 37.7,24.9 
	37.6,24.2 37.6,23.9 37.6,23.5 37.6,23.2 37.6,22.8 37.6,22.5 37.7,22.1 37.8,21.8 37.9,21.5 38,21.3 38.2,21.1 38.3,20.9 
	38.5,20.8 38.5,20.8 38.6,20.8 38.7,20.8 38.8,20.9 38.9,21 39.1,21.3 39.2,21.5 39.4,21.7 39.5,21.7 39.5,21.8 39.6,21.8 
	39.6,21.8 39.7,21.7 39.9,21.6 40,21.5 40.1,21.3 40.3,21 40.5,20.8 40.5,20.8 40.6,20.7 40.6,20.8 40.7,20.8 40.8,20.9 40.9,21.2 
	41.2,21.6 41.4,21.8 41.5,21.9 41.6,21.9 41.7,22 41.8,22 41.9,21.9 42.1,21.8 42.2,21.6 42.3,21.4 42.6,20.9 42.8,20.6 42.9,20.6 
	43,20.6 43,20.6 43.1,20.6 43.2,20.8 43.3,21.1 43.4,21.5 43.6,21.7 43.6,21.8 43.7,21.8 43.8,21.8 43.9,21.7 44,21.6 44.1,21.4 
	44.2,21.1 44.4,20.8 44.5,20.7 44.6,20.6 44.7,20.6 44.7,20.6 44.8,20.6 44.9,20.7 45,21 45.2,21.5 45.4,22.2 45.5,23 45.5,23.4 
	45.6,23.8 45.6,24.2 45.6,24.6 45.5,24.9 45.4,25.1 45.4,25.2 45.3,25.3 45.2,25.3 45.1,25.4 45.3,25.6 45.5,25.8 45.7,26 
	45.9,26.2 46.5,26.6 47,27 47.3,27.2 47.6,27.5 47.8,27.8 48.1,28.2 48.3,28.5 48.5,28.9 48.7,29.4 48.9,29.9 49,29.5 49.3,29.2 
	49.5,28.9 49.8,28.6 50.3,28.1 50.9,27.6 50.7,27.5 50.5,27.4 50.3,27.2 50.2,27 50.1,26.9 49.9,26.7 49.9,26.4 49.8,26.2 
	49.8,25.9 49.8,25.6 49.8,25.3 49.9,25 50,24.3 50.3,23.6 50.6,22.9 51,22.1 51.6,21.3 52.1,20.5 52.5,20.2 52.9,19.8 53.2,19.4 
	53.6,19 54.1,18.6 54.5,18.2 55,17.9 55.5,17.5 55.3,17.4 55.2,17.3 55.1,17.2 55,17.1 54.8,16.8 54.7,16.4 54.6,16 54.6,15.6 
	54.7,15.2 54.8,14.8 54.9,14.3 55.1,13.8 55.4,13.4 55.7,13 56,12.6 56.4,12.2 56.9,11.9 57.3,11.6 57.4,11.4 57.5,11.2 57.6,10.9 
	57.8,10.6 58,10.3 58.3,10 58.6,9.7 58.9,9.4 59.3,9.2 59.6,9 59.8,9 60,8.9 60.2,8.9 60.3,8.9 60.5,8.9 60.7,8.9 60.9,8.9 61.1,9 
	61.3,9.1 61.4,9.3 61.6,9.4 61.8,9.6 61.8,9.4 61.9,9.3 62,9.3 62.2,9.2 62.4,9.2 62.6,9.2 62.9,9.2 63.1,9.3 63.6,9.5 64.1,9.7 
	64.5,9.9 64.8,10.1 65.3,9.2 65.8,8.2 66.3,7.3 66.9,6.2 67.5,5.2 68.3,4.2 68.7,3.7 69.1,3.1 69.5,2.6 70,2.1 70.1,2 70.2,1.9 
	70.4,1.9 70.6,1.9 70.7,1.9 70.9,2 71.1,2.1 71.2,2.1 71.4,2.3 71.6,2.5 71.8,2.6 72,2.9 72.4,3.4 72.7,3.9 73.1,4.6 73.4,5.3 
	73.7,6.2 73.9,7.1 74,7.5 74.1,8 74.1,8.5 74.2,9 74.2,9.5 74.1,10 74.1,10.6 74,11.1 74.5,11.2 74.9,11.4 75.1,11.7 75.3,12.2 
	75.5,12.7 75.5,13.4 75.4,14.2 75.3,15 75.1,16 74.9,17 74.6,18 74.3,19.1 73.9,20.3 73.5,21.5 73,22.7 72.5,23.9 71.9,25.1 
	71.4,26.3 70.8,27.5 70.2,28.7 69.6,29.8 68.9,30.9 68.3,32 67.6,33 67,33.9 66.4,34.7 65.8,35.5 65.2,36.1 64.6,36.7 64,37.2 
	63.5,37.5 63,37.7 62.8,37.7 62.7,37.8 62.5,37.9 62.4,38 62.1,38.2 61.9,38.4 61.7,38.7 61.6,39 61.5,39.3 61.4,39.7 61.3,40.1 
	61.2,40.4 61.1,40.6 61,40.8 60.8,40.9 60.7,41.1 60.5,41.2 60.3,41.3 60,41.5 59.8,41.6 59.1,41.9 58.4,42.2 58.2,42.3 58.1,42.4 
	58,42.5 57.8,42.6 57.6,42.9 57.5,43.2 57.4,43.6 57.4,43.9 57.4,44.2 57.4,44.4 57.4,44.5 57.4,44.6 57.3,44.6 57.3,44.7 57,44.8 
	56.6,44.8 55.6,44.8 54.3,44.8 53.5,44.8 52.7,44.9 51.8,44.9 50.9,45.1 50.4,45.2 49.9,45.3 49.5,45.5 49,45.7 48.5,45.9 48,46.1 
	47.5,46.3 47,46.6 47.1,47.1 47.2,47.6 47.4,48.1 47.6,48.7 47.8,49.2 48.1,49.7 48.3,50.2 48.7,50.7 49,51.1 49.3,51.5 49.6,51.8 
	49.9,52.1 50.3,52.4 50.5,52.5 50.7,52.6 50.8,52.6 50.9,52.6 51,52.6 51.6,51.8 52.1,51 52.8,50.2 53.4,49.5 54.2,48.8 54.9,48.1 
	55.7,47.5 56.5,47 57.4,46.4 58.3,46 59.2,45.6 60.1,45.2 61,44.9 62,44.7 62.9,44.5 63.9,44.3 64.8,44.3 65.8,44.2 66.7,44.3 
	67.7,44.4 68.6,44.6 69.6,44.9 70.5,45.2 71.4,45.6 72.2,46.1 73.1,46.7 73.9,47.3 74.6,48 75.4,48.8 76.1,49.7 76.7,50.7 
	77.3,51.7 77.8,51.6 78.4,51.3 79.2,51 80,50.6 80.4,50.3 80.8,50.1 81.1,49.8 81.5,49.5 81.9,49.2 82.2,48.9 82.6,48.5 82.8,48.1 
	82.8,49.8 82.7,51.7 82.5,53.8 82.3,56.1 82.1,58.4 81.9,60.6 81.6,62.8 81.3,64.7 81,66.4 80.5,68 79.9,69.6 79.2,71.2 78.5,72.8 
	77.7,74.3 76.8,75.7 75.8,77.2 74.7,78.6 73.6,80 72.4,81.3 71.2,82.6 70,83.8 68.6,85 67.3,86.2 65.9,87.3 64.5,88.4 63,89.4 
	61.5,90.4 60,91.4 58.5,92.3 57,93.1 55.5,93.9 54,94.6 52.4,95.4 50.9,96 49.4,96.6 47.9,97.2 46.4,97.7 45,98.1 43.6,98.5 
	42.2,98.8 41.9,98.4 41.6,97.8 41.4,97.3 41.1,96.6 40.9,95.9 40.7,95.3 40.5,94.5 40.3,93.8 40.2,93.1 40,92.4 39.9,91.7 39.9,91 
	39.8,90.4 39.8,89.8 39.9,89.3 39.9,88.9 38.3,88.8 36.8,88.7 35.4,88.4 34.2,88.1 33,87.7 31.9,87.1 30.9,86.6 30,86 29.2,85.2 
	28.6,84.5 27.9,83.7 27.4,82.8 27,82 26.6,81.1 26.3,80.1 26.1,79.2 26,78.2 26,77.2 26,76.2 26.1,75.2 26.2,74.2 26.4,73.3 
	26.7,72.3 27,71.4 27.4,70.5 27.8,69.6 28.3,68.8 28.8,68 29.4,67.3 30.1,66.6 30.7,66 31.4,65.5 31.4,65.1 31.2,64.4 31.2,63.9 
	31.2,63.4 31.2,62.7 31.3,62.1 31.4,61.7 31.5,61.4 31.7,61 31.8,60.6 32,60.3 32.2,59.9 32.5,59.5 32.8,59.1 33.1,58.8 33.5,58.4 
	33.9,58 34.3,57.7 34.8,57.3 35.4,57 36,56.7 36.7,56.3 36.5,55.3 36.4,54.3 36.3,53.3 36.2,52.3 36.1,51.2 36.1,49.9 36.1,48.2 
	36.2,46.3 35.9,46.2 35.6,46.1 35.2,46.1 34.8,46 34.6,46.1 34.3,46.1 34.1,46.2 33.8,46.2 33.6,46.4 33.3,46.5 33,46.6 32.7,46.8 
	32.5,47 32.4,47.1 32.2,47.2 32.1,47.2 32,47.2 31.9,47.2 31.8,47.2 31.7,47.1 31.5,46.9 31.4,46.6 31.4,46.3 31.2,45.9 31.1,45.6 
	31,45.2 30.8,44.8 30.5,44.4 30.3,44.2 30.1,44.1 29.9,43.9 29.7,43.8 29.5,43.6 29.2,43.6 28.9,43.5 28.5,43.4 28.3,43.4 28,43.3 
	27.7,43.1 27.4,42.9 26.8,42.5 26.1,42 24.6,40.8 23.1,39.7 23,39.9 22.9,40.4 22.8,41 22.9,41.8 23,43.9 23.3,46.4 23.7,49.5 
	24.1,52.8 24.5,56.3 24.9,59.9 25.1,61.7 25.2,63.5 25.4,65.3 25.5,67 25.5,68.7 25.5,70.3 25.5,71.8 25.4,73.3 25.2,74.6 25,75.7 
	24.7,76.8 24.3,77.7 23.9,78.5 23.4,79.1 22.8,79.5 22.1,79.6 21,79.7 19.9,79.8 18.9,79.8 17.9,79.8 17,79.7 16.1,79.6 15.3,79.5 
	14.6,79.3 13.9,79.1 13.2,78.9 12.6,78.6 12,78.4 11.5,78.1 11.1,77.8 10.7,77.5 10.4,77.3 10.1,76.9 9.9,76.6 9.7,76.3 9.6,76 
	9.5,75.7 9.5,75.5 9.6,75.2 9.7,74.9 9.9,74.7 10.1,74.5 10.4,74.3 10.7,74.1 11.1,74 11.6,73.9 12.1,73.9 12.7,73.9 12.8,72.5 
	12.8,71 12.9,69.6 12.9,68 12.8,64.7 12.7,61.2 12.4,57.6 12.2,53.9 12,50.2 11.8,46.4 11.6,42.7 11.5,39.1 11.5,37.3 11.6,35.6 
	11.6,33.9 11.7,32.3 11.8,30.7 12,29.2 12.2,27.8 12.4,26.4 12.8,25.1 13.1,23.8 13.5,22.7 14,21.6 13.5,20.9 13.1,20.2 12.6,19.4 
	12.2,18.6 11.9,17.7 11.6,16.9 11.4,16 11.1,15.1 11,14.3 10.8,13.4 10.7,12.5 10.6,11.6 10.6,10.8 10.6,10 10.6,9.1 10.6,8.4 
	10.7,7.6 10.8,6.9 10.9,6.2 11.1,5.6 11.3,4.9 11.5,4.4 11.7,3.9 11.9,3.5 12.2,3.1 12.4,2.9 12.8,2.6 13,2.5 13.3,2.4 13.7,2.4 
	14,2.5 "/>
<path class="st1" d="M38.1,35.8L38.1,35.8l0.1,0.1v0l0,0.1v0.1v0.1v0.1v0.1v0.1l0,0v0.1l0,0.1l0,0.1l0,0l0,0.1l0,0l-0.1,0l0,0l0,0
	h-0.1l0,0h-0.1h0h-0.1l0,0h-0.1l0,0l0,0l-0.1,0l0,0l0-0.1l0,0L38.1,35.8z M38.1,35.8l-1,0.7l0,0L38.1,35.8L38.1,35.8z M37.1,36.5
	L37.1,36.5L37.1,36.5L37,36.4v-0.1l0-0.1v-0.1v-0.1v-0.1l0-0.1v0l0-0.1v-0.1l0-0.1l0,0l0,0l0-0.1l0.1,0l0,0l0.1,0h0l0.1,0h0h0.1h0
	l0.1,0h0l0,0l0.1,0l0,0l0,0l0,0.1l0,0L37.1,36.5z"/>
<path class="st1" d="M59.2,82.6l1.4,0.1v0.1l0,0.1v0.1l0,0.1l0,0.1l0,0.1l0,0.1l0,0l-0.1,0.1l0,0l-0.1,0l0,0h-0.1H60l-0.1,0h-0.1
	l0,0h-0.1l-0.1,0l-0.1,0l0,0l-0.1,0l0-0.1l0,0l0-0.1l0-0.1l0-0.1l0-0.1v-0.1v-0.1V82.6L59.2,82.6z M59.2,82.6L59.2,82.6l1.4,0.1v0
	L59.2,82.6z M60.6,82.7l-1.4-0.1v-0.1v-0.1l0-0.1l0-0.1l0-0.1l0,0l0-0.1l0,0l0-0.1l0.1,0l0,0l0.1,0h0.1l0.1,0h0H60H60l0.1,0l0.1,0
	l0,0l0.1,0l0,0l0.1,0l0,0.1l0,0.1l0,0.1l0,0.1v0.1l0,0.1v0.1V82.7L60.6,82.7z"/>
<line class="st3" x1="62.9" y1="18.8" x2="62.9" y2="18.8"/>
<polygon class="st4" points="12,10.6 11.8,10.9 11.7,11.2 11.6,11.6 11.5,12 11.5,12.4 11.5,12.8 11.6,13.2 11.7,13.7 11.8,14.2 
	11.9,14.7 12,15.2 12.2,15.6 12.6,16.6 13.1,17.5 13.5,18.3 14,19 14.2,19.3 14.5,19.6 14.7,19.9 14.9,20.1 15.1,20.2 15.3,20.3 
	15.5,20.4 15.6,20.4 15.7,20.3 15.8,20.2 15.9,20 15.9,19.7 15.9,19.2 15.9,18.7 15.7,18.2 15.5,17.6 15.3,17.1 15,16.5 14.7,15.9 
	14.4,15.3 13.7,14.1 13,12.9 12.7,12.4 12.4,11.8 12.2,11.2 "/>
<polygon class="st4" points="17.9,19.8 17.7,19.5 17.4,19.2 17.1,18.8 16.9,18.4 16.4,17.6 15.8,16.7 15.3,15.7 14.9,14.7 
	14.4,13.7 14,12.7 13.7,11.7 13.4,10.8 13.1,9.9 13,9.2 12.9,8.5 12.9,8.1 12.9,7.9 12.9,7.7 13,7.7 13.1,7.6 13.3,7.7 13.5,8.1 
	13.9,8.7 14.4,9.4 15.5,11.3 16.8,13.4 18,15.6 19.2,17.6 20,19 20.4,19.7 19.8,19.7 19.3,19.7 18.6,19.7 "/>
<polygon class="st4" points="13.7,4.3 13.5,4.2 13.3,4.2 13.2,4.4 13.1,4.5 13.1,4.8 13.1,5.1 13.1,5.4 13.2,5.9 13.5,6.9 13.9,8 
	14.4,9.3 15,10.6 15.7,12 16.6,13.4 17,14 17.4,14.7 17.9,15.4 18.3,16 18.8,16.6 19.3,17.2 19.7,17.7 20.2,18.3 20.8,18.7 
	21.2,19.1 21.7,19.5 22.2,19.8 22.6,19.8 23,19.9 23.3,19.9 23.7,20 24,20.1 24.3,20.2 24.5,20.3 24.7,20.5 25,20.7 25.1,20.8 
	25.3,21 25.5,21.2 25.7,21.6 25.9,22 26.1,22.4 26.2,22.9 26.2,23.3 26.2,23.8 26.2,24.7 26.2,25.5 26.4,25.6 26.5,25.7 26.6,25.9 
	26.8,26 27.2,26.5 27.5,27 28.3,28.5 29.1,30.1 29.9,31.7 30.6,33.1 31.1,34.2 31.4,34.7 31.5,34.8 31.6,34.9 31.7,34.9 31.9,34.9 
	32,34.9 32.2,34.8 32.4,34.8 32.6,34.7 33,34.5 33.5,34.2 33.9,33.9 34.3,33.5 34.1,32.6 33.7,31.6 33.3,30.6 32.8,29.5 32.3,28.5 
	31.7,27.4 31.1,26.3 30.5,25.3 29.1,23.2 27.7,21.2 26.3,19.4 25,17.7 23.4,15.6 21.8,13.4 20.1,11.2 18.4,9.2 17.7,8.2 17,7.4 
	16.2,6.6 15.6,5.9 15,5.3 14.5,4.8 14.2,4.6 14,4.5 13.9,4.4 "/>
<polygon class="st4" points="14.6,73.7 15.6,73.6 16.4,73.5 17.1,73.5 17.8,73.5 19,73.7 20.1,73.8 20.2,73.9 20.2,73.9 20.3,74 
	20.4,74.1 20.5,74.3 20.6,74.6 20.8,75.3 20.9,76.1 21,76.8 21.2,77.5 21.3,77.7 21.5,77.9 21.5,77.9 21.7,78 21.7,78 21.9,78 
	22.4,77.7 22.8,77.2 23.1,76.4 23.4,75.4 23.6,74.3 23.7,72.9 23.8,71.4 23.8,69.7 23.8,67.9 23.7,66 23.6,64 23.5,61.9 23.2,57.5 
	22.8,53 22.4,48.4 22,44.1 21.7,39.9 21.5,36.2 21.4,34.5 21.4,33 21.4,31.7 21.5,30.5 21.6,29.5 21.8,28.8 22.1,28.2 22.4,28 
	22.5,28 22.6,28 22.8,28.1 22.9,28.3 23,28.5 23.2,28.6 23.3,28.7 23.5,28.8 23.9,29 24.3,29 24.6,29 24.8,29.1 25,29.2 25.3,29.4 
	25.5,29.5 25.7,29.7 25.9,29.9 26,30.1 26.3,30.6 26.6,31.2 26.8,31.8 27,32.5 27.4,33.9 27.7,35.2 27.9,36.4 28.3,37.4 28.5,37.8 
	28.7,38.4 28.8,38.6 29,38.9 29.1,39 29.3,39.2 30.1,38.9 31.3,38.5 32.7,37.9 34.2,37.3 34.6,37.1 35,36.8 35.4,36.6 35.7,36.4 
	36.1,36.1 36.4,36 36.8,35.8 37.2,35.7 37.4,35.7 37.6,35.7 37.7,35.8 37.7,35.9 37.7,36.1 37.7,36.2 37.7,36.4 37.6,36.6 
	37.5,37.1 37.4,37.7 37.3,37.9 37.3,38.2 37.2,38.5 37.3,38.8 37.4,39.3 37.5,39.9 37.6,40.4 37.6,40.9 37.6,42.5 37.6,44.3 
	37.6,46.2 37.7,48.1 37.7,49.1 37.8,50.1 37.9,51.1 37.9,52.1 38.1,53.1 38.2,54 38.4,55 38.7,55.9 38.9,56.8 39.2,57.7 39.6,58.6 
	39.9,59.5 40.4,60.3 40.8,61 41.4,61.8 42,62.5 42.7,63.2 43.4,63.8 44.2,64.3 45,64.9 46,65.3 47,65.7 48.1,66.1 49.2,66.3 
	49.7,66.4 50.2,66.5 50.7,66.5 51.2,66.5 52,66.4 52.9,66.3 53.6,66.3 54.4,66.2 54.7,66.3 55.1,66.3 55.4,66.4 55.7,66.6 56.4,67 
	57.3,67.3 57.7,67.5 58.2,67.7 58.7,67.8 59.3,67.9 59.5,68 59.6,68 59.7,68 59.7,67.9 59.7,67.9 59.7,67.8 59.6,67.8 59.5,67.7 
	58.8,67.2 57.8,66.6 56.7,66 55.8,65.3 55.4,65 55.1,64.8 55,64.7 55,64.6 54.9,64.5 55,64.4 55.1,64.3 55.1,64.3 55.3,64.3 
	55.4,64.3 55.8,64.5 56.2,64.7 57.3,65.4 58.6,66.2 59.4,66.7 60.1,67.2 60.9,67.7 61.7,68.2 62.5,68.5 63.3,68.9 63.7,69.1 
	64.1,69.2 64.5,69.3 64.9,69.4 65,69.4 65.1,69.3 65,69.3 64.9,69.1 64.4,68.6 63.6,67.9 62.7,67.2 61.6,66.3 60.6,65.4 59.5,64.4 
	59.1,63.9 58.6,63.5 58.2,63 57.8,62.6 57.5,62.2 57.3,61.8 57.1,61.4 57,61 57,60.8 57.1,60.5 57.3,60.3 57.6,60.1 58,60 58.6,60 
	59.4,60 60.2,60.1 60.6,60.1 61.3,60.2 61.6,60.1 62,60.1 62.1,60 62.2,60 62.3,59.9 62.3,59.8 62.3,59.8 62.3,59.7 62.2,59.6 
	62.1,59.6 61.8,59.5 61.5,59.3 61.1,59.2 60.8,59.1 60.7,59 60.6,58.9 60.5,58.8 60.5,58.7 60.5,58.6 60.5,58.5 60.6,58.4 
	60.7,58.3 60.8,58.2 61,58.2 61.4,58.1 61.9,57.9 62.5,57.8 63.1,57.5 63.5,57.4 63.8,57.2 64.1,57 64.4,56.8 64.7,56.5 65,56.3 
	65.3,56 65.5,55.7 65.6,55.7 65.6,55.6 65.5,55.6 65.5,55.6 65.3,55.6 65,55.6 64.3,55.7 63.5,55.8 61.7,56.1 60.6,56.3 60.4,56.3 
	60.3,56.3 60.2,56.3 60,56.2 59.9,56 59.8,55.8 59.7,55.5 59.6,55.3 59.6,55.2 59.5,55.2 59.4,55.2 59.4,55.1 58,55.3 56.8,55.4 
	55.6,55.4 54.5,55.3 53.5,55.2 52.5,55 51.6,54.8 50.9,54.5 50.1,54.2 49.4,53.8 48.8,53.3 48.3,52.8 47.8,52.3 47.3,51.7 47,51.1 
	46.6,50.4 46.3,49.7 46.1,49 45.9,48.2 45.8,47.4 45.7,46.6 45.6,45.7 45.6,44.8 45.6,43.9 45.6,43 45.7,42 45.8,41.1 45.9,40.1 
	46.2,38.1 46.6,36 46.7,35.8 46.7,35.7 46.8,35.6 46.9,35.5 47,35.4 47,35.4 47.2,35.4 47.3,35.4 47.6,35.4 47.8,35.5 48.1,35.7 
	48.5,35.9 49.2,36.4 49.9,36.9 50.7,37.4 51.4,37.9 51.8,38.1 52.4,38.3 52.9,38.6 53.5,38.8 54.1,39 54.6,39.1 55.1,39.2 
	55.6,39.3 55.7,39.3 55.8,39.2 55.9,39.1 56,39 56.1,38.7 56.2,38.5 56.5,37.9 56.8,37.3 57.2,36.7 57.6,35.9 57.9,35 58.3,34 
	58.4,33.5 58.5,32.9 58.7,32.2 58.8,31.6 58.9,30.8 59,30.1 59,29.9 59.1,29.8 59.2,29.7 59.3,29.7 59.4,29.6 59.6,29.5 59.8,29.5 
	60.1,29.5 60.3,29.5 60.5,29.5 60.6,29.4 60.7,29.4 60.9,29.3 61,29.2 61.1,29.1 61.1,29 61.3,28.8 61.3,28.5 61.4,28.1 61.4,27.7 
	61.3,27.7 61.3,27.6 61.3,27.5 61.3,27.5 61.1,27.5 61,27.6 60.7,27.9 60.3,28.3 59.9,28.6 59.6,28.9 59.5,28.9 59.4,28.9 
	59.4,28.9 59.3,28.9 59.3,28.8 59.3,28.6 59.3,28.6 59.3,28.5 59.3,28.4 59.4,28.4 59.6,28.3 59.8,28.2 60,28.1 60.2,27.9 
	60.3,27.8 60.4,27.7 60.5,27.6 60.5,27.4 60.6,27.3 60.7,27.2 60.8,27.1 60.9,27 61.1,26.9 61.3,26.8 61.8,26.7 62.5,26.5 
	62.8,26.4 63.1,26.3 63.2,26.2 63.2,26.2 63.3,26.1 63.2,26 63.1,26 63,26 62.8,26 62.6,26.1 62,26.1 61.6,26.2 61.1,26.3 
	60.6,26.5 60,26.6 59.5,26.8 59,27 58.5,27.3 58.3,27.5 58.1,27.6 57.9,27.8 57.8,28 57.6,28.2 57.5,28.6 57.3,29.2 57.1,29.8 
	56.7,31.3 56.2,32.8 55.9,33.6 55.7,34.3 55.4,35 55.1,35.5 55,35.7 54.9,36 54.7,36.1 54.6,36.3 54.5,36.4 54.4,36.4 54.2,36.5 
	54.1,36.4 53.6,36.2 53,35.9 52.5,35.7 52,35.4 51.6,35.1 51.2,34.8 50.8,34.5 50.4,34.2 50.1,33.9 49.7,33.6 49.3,33.4 49,33.3 
	48.7,33.1 48.3,33 48.1,32.9 47.8,32.8 47.2,32.6 46.7,32.6 46.2,32.6 45.8,32.6 45.3,32.7 44.9,32.8 44.5,33 44.2,33.1 43.9,33.3 
	43.8,33.5 43.6,33.7 43.4,33.8 43.2,34.2 43.1,34.4 43,34.5 43,34.6 42.9,34.6 42.9,34.6 42.8,34.5 42.7,34.3 42.7,34.2 42.7,34 
	42.8,33.8 42.8,33.6 42.9,33.4 43.1,33.1 43.4,32.7 43.7,32.3 43.9,32.1 44.1,31.8 44,31.7 43.8,31.6 43.7,31.4 43.6,31.3 43.4,31 
	43.2,30.6 43.1,30.2 43,29.8 42.9,29.3 42.8,28.9 42.4,29.2 41.9,29.4 41.2,29.7 40.5,29.9 40.5,30.2 40.5,30.7 40.5,31.1 
	40.4,31.6 40.1,32.2 39.9,32.7 39.9,32.9 39.9,33.1 40.1,33.4 40.4,33.8 40.5,33.7 40.6,33.7 40.7,33.6 40.8,33.6 40.8,33.7 
	40.9,33.8 41,33.9 41.1,34.1 41.2,34 41.3,33.8 41.4,33.7 41.5,33.6 41.6,33.6 41.7,33.6 41.8,33.6 41.9,33.6 42.1,33.6 42.2,33.7 
	42.3,33.8 42.4,33.9 42.5,34 42.5,34.2 42.5,34.3 42.6,34.5 42.5,34.7 42.5,34.9 42.3,35.1 42.1,35.2 42,35.3 41.9,35.3 41.8,35.3 
	41.7,35.2 41.6,35.2 41.5,35.1 41.4,35 41.3,34.8 41.2,35 41.1,35.1 41,35.2 40.9,35.2 40.8,35.2 40.7,35.2 40.6,35.2 40.5,35.1 
	40.4,35 40.3,35 40.3,34.8 40.2,34.6 40.2,34.4 40.1,34.2 40,34.1 39.9,34.1 39.8,33.9 39.7,33.8 39.7,33.6 39.7,33.3 39.7,33 
	39.7,32.7 39.7,32.6 39.7,32.6 39.6,32.5 39.5,32.5 38.5,32.6 37.7,32.6 37.1,32.7 36.6,32.9 36.1,33.1 35.8,33.3 35.5,33.5 
	35.2,33.7 34.6,34.2 34.1,34.6 33.6,34.9 33.1,35.2 32.6,35.4 32.2,35.6 31.6,35.8 31,35.9 30.9,35.9 30.8,35.8 30.6,35.7 
	30.5,35.5 30.3,35 30,34.4 29.4,32.7 28.6,30.7 28.2,29.7 27.7,28.8 27.4,28.3 27.2,27.9 26.9,27.5 26.6,27.2 26.2,26.8 25.9,26.6 
	25.6,26.3 25.2,26.1 24.8,25.9 24.4,25.9 24,25.8 23.5,25.9 23.7,26 24.2,26.3 24.3,26.5 24.4,26.6 24.4,26.7 24.3,26.7 24.2,26.7 
	24,26.7 23.4,26.7 22.4,26.7 21.9,26.7 21.5,26.7 21.4,26.8 21.3,26.8 21.4,26.9 21.5,27 21.7,27.1 21.9,27.1 22.2,27.2 22.5,27.2 
	23.1,27.2 23.4,27.2 23.6,27.2 23.7,27.3 23.8,27.4 23.9,27.5 24,27.7 24.3,27.8 24.6,27.9 25,28 25.2,28 25.2,28.1 25.3,28.2 
	25.3,28.3 25.2,28.4 25.1,28.5 25,28.5 25,28.6 24.9,28.6 24.8,28.5 23,28 21.6,27.6 21.1,27.4 20.7,27.2 20.4,27.1 20.2,27 
	20.1,26.8 20.1,26.7 20.2,26.6 20.4,26.5 20.6,26.4 20.9,26.3 21.2,26.3 21.7,26.2 21.7,25.5 21.7,24.7 21.9,23.9 22,23.1 
	22.2,22.5 22.4,21.9 22.5,21.6 22.7,21.4 22.8,21.2 23,21.1 21.8,21 20.7,20.9 19.7,20.9 18.8,20.9 18,21 17.3,21 16.6,21.1 
	16,21.3 15.5,21.6 15,22.1 14.6,22.8 14.2,23.7 13.9,24.7 13.6,26 13.4,27.4 13.2,28.9 13.1,30.6 13,32.4 12.9,34.3 12.9,36.2 
	12.9,38.3 12.9,40.4 13,42.6 13.1,44.8 13.3,49.2 13.5,53.6 13.8,57.9 14.1,61.9 14.3,65.7 14.5,68.9 14.6,70.4 14.6,71.7 
	14.6,72.8 "/>
<polygon class="st4" points="28.1,41.4 28.6,41.6 29.2,41.8 29.7,42.1 30.3,42.4 30.6,42.6 30.8,42.8 31,43 31.2,43.2 31.4,43.5 
	31.6,43.8 31.7,44.2 31.9,44.5 31.9,44.6 32,44.7 32.2,44.8 32.3,44.8 32.8,44.7 33.4,44.5 33.8,44.5 34.1,44.4 34.5,44.4 35,44.3 
	35.4,44.3 35.8,44.4 36.2,44.5 36.7,44.6 36.7,43.8 36.7,43.2 36.7,42.7 36.7,42.2 36.5,41.4 36.4,40.8 36.2,40.2 36.1,39.6 
	36.1,39.2 36.1,38.8 36.1,38.4 36.2,37.8 36.2,37.7 36.2,37.6 36.1,37.5 36,37.5 35.9,37.5 35.7,37.7 35,37.9 34.4,38.2 33.8,38.5 
	33.1,38.7 32.4,38.9 31.6,39.2 30.8,39.5 29.9,39.9 29.7,40 29.5,40 29.3,39.9 29.1,39.8 28.9,39.7 28.7,39.5 28.5,39.3 28.3,39 
	28,38.4 27.7,37.6 27.4,36.8 27.1,35.9 26.6,34.1 26.1,32.3 25.9,31.5 25.6,30.9 25.5,30.6 25.4,30.3 25.2,30.2 25.1,30 25,29.9 
	24.9,29.8 24.7,29.8 24.4,29.7 23.9,29.6 23,29.6 22.9,30.3 22.8,31.2 22.7,32.3 22.7,33.4 22.7,34.6 22.7,35.8 22.8,36.9 
	22.9,38.1 23.6,38.5 24.2,38.9 24.8,39.3 25.3,39.7 25.9,40.1 26.5,40.5 26.8,40.8 27.2,41 27.7,41.2 "/>
<polygon class="st4" points="23.8,21.6 23.6,21.9 23.4,22.2 23.3,22.5 23.2,22.9 23.1,23.3 23.1,23.8 23.1,24.3 23.1,24.7 
	23.5,24.7 24,24.7 24.4,24.7 25,24.8 25,24.1 25,23.4 24.9,22.8 24.7,22.3 24.6,22 24.5,21.9 24.4,21.7 24.3,21.6 24.2,21.5 
	24,21.5 23.9,21.5 "/>
<polygon class="st4" points="45.7,66.3 45.8,66.4 45.8,66.4 45.8,66.5 45.8,66.5 45.7,66.6 45.5,66.8 45,67.2 44.4,67.6 43.7,68.1 
	43,68.5 42.7,68.8 42.5,69 42.2,69.2 42.1,69.4 41.9,69.6 41.9,69.8 41.9,70 41.9,70.1 42.1,70.2 42.2,70.3 42.4,70.5 42.5,70.5 
	42.9,70.8 43.3,71 43.4,71.2 43.5,71.3 43.6,71.5 43.6,71.7 43.5,72 43.4,72.1 43.4,72.2 43.3,72.2 43.2,72.2 43,72.1 42.9,72 
	42.8,71.8 42.4,71.5 42,71.2 41.8,71 41.6,70.9 41.3,70.9 41,70.9 40.5,70.9 40,70.9 39.6,70.9 39.1,71 38.4,71.1 37.7,71.2 
	37.2,71.3 36.9,71.3 36.8,71.3 36.7,71.3 36.6,71.2 36.6,71 36.6,70.9 36.7,70.7 36.7,70.6 36.8,70.5 36.9,70.5 37,70.4 37.1,70.3 
	37.3,70.3 37.6,70.2 38,70.1 38.4,70.1 38.8,70.1 39.6,70.1 40.2,70.1 40.4,70.1 40.5,70.1 40.5,70 40.5,70 40.5,69.9 40.5,69.9 
	40.3,69.7 40.1,69.7 39.8,69.7 39.5,69.7 38.7,69.8 37.9,69.9 37.1,70 36.5,70 36.2,70 35.9,70 35.9,69.9 35.8,69.9 35.7,69.8 
	35.7,69.7 35.7,69.6 35.7,69.4 35.8,69.3 36,69.3 36.1,69.2 36.3,69.2 36.6,69.2 36.8,69.2 38,69.3 39.2,69.3 39.5,69.3 39.7,69.3 
	39.9,69.2 40.1,69.2 40.5,69 40.9,68.8 41.2,68.5 41.6,68.3 41.8,68 42.1,67.6 42.6,66.9 43,66.2 43.4,65.5 43.7,64.9 43.8,65 
	43.9,65 44.1,65.2 44.3,65.4 44.7,65.7 45.1,66 "/>
<polygon class="st4" points="47.1,67.2 47.5,67.4 47.9,67.5 48.3,67.6 48.6,67.7 49.3,67.8 49.9,67.8 50.3,67.8 50.7,67.8 
	50.8,67.8 50.9,67.8 50.9,67.8 50.9,67.9 50.6,68.1 50.4,68.2 50.1,68.3 49.9,68.4 49.6,68.5 49.4,68.5 49.2,68.6 49,68.6 
	48.6,68.6 48.3,68.5 48,68.5 47.9,68.4 47.8,68.6 47.4,68.9 47.3,68.9 47.2,68.9 47.1,68.8 47,68.7 46.9,68.3 46.7,68 46.7,67.8 
	46.7,67.6 46.7,67.4 46.7,67.3 46.7,67.2 46.9,67.2 47,67.1 "/>
<polygon class="st4" points="34.7,64.9 34.5,64.9 34.3,64.8 34.1,64.7 34,64.6 33.9,64.5 33.7,64.3 33.6,64.1 33.5,63.9 33.4,63.7 
	33.4,63.4 33.4,63.2 33.3,62.9 33.3,62.6 33.4,62.3 33.4,62 33.4,61.7 33.5,61.4 33.6,61 33.7,60.7 33.9,60.4 34.1,60.1 34.3,59.9 
	34.5,59.6 34.8,59.3 35.1,59.1 35.4,58.8 35.7,58.6 36.1,58.4 36.6,58.2 37,58.1 37.5,58 38,57.9 38.1,58.4 38.3,58.8 38.5,59.2 
	38.7,59.6 39.1,60.4 39.6,61 40.5,62.2 41.3,63.1 41.6,63.5 41.9,63.9 42.1,64.3 42.3,64.7 42.3,64.9 42.3,65 42.3,65.3 42.3,65.5 
	42.2,65.7 42.1,65.9 41.9,66.1 41.8,66.4 41.5,66.3 41,66.1 40.3,65.8 39.6,65.5 39.1,65.4 38.6,65.3 38,65.1 37.4,65 36.8,65 
	36.1,64.9 35.4,64.9 "/>
<polygon class="st4" points="24,17.4 24.6,18.5 25.2,19.6 25.9,20.7 26.6,21.7 27.4,22.7 28.1,23.6 28.8,24.3 29.5,25 30.8,26 
	31.9,26.7 32.6,27.2 33.3,27.5 33.7,27.5 33.9,27.3 33.9,27 33.8,26.5 33.6,25.8 33.2,25 32.7,24.1 32.1,23.1 31.5,22.1 30.7,21.1 
	30,20 29.2,18.9 28.3,17.8 27.5,16.8 26.7,15.8 25.9,14.9 25.2,14.1 24.5,13.4 23.9,12.8 23.3,12.4 22.9,12.2 22.6,12.2 22.4,12.4 
	22.4,12.8 22.5,13.5 22.8,14.5 23.3,15.8 "/>
<polygon class="st4" points="68.6,60.3 67.8,60.4 66.9,60.6 66,60.6 65.1,60.8 64.1,60.9 63.2,60.9 62.2,61 61.4,60.9 60.9,60.9 
	60.5,61 60.2,61.1 59.9,61.2 59.7,61.4 59.5,61.5 59.4,61.7 59.4,61.9 59.4,62.1 59.5,62.2 59.6,62.4 59.8,62.6 60.1,62.7 
	60.5,62.8 60.9,62.8 61.3,62.8 62.3,62.7 63.1,62.6 64,62.4 64.8,62.2 65.3,62.1 65.7,61.9 66.2,61.7 66.6,61.5 67.1,61.2 67.6,61 
	68.1,60.7 "/>
<polygon class="st4" points="77.9,58.3 78.4,57.8 78.8,57.4 79.1,57.1 79.4,56.7 79.5,56.4 79.6,56.2 79.6,56.1 79.5,56 79.5,56 
	79.3,55.9 79.2,55.9 79.1,55.9 79,55.9 78.8,55.9 78.3,56.1 77.7,56.3 77,56.7 76.3,57.1 75.4,57.6 74.4,58.3 73.6,58.8 72.7,59.4 
	71.9,59.9 71,60.5 70,61.1 68.9,61.7 67.8,62.3 66.6,63 67.3,62.9 68.1,62.7 68.9,62.5 69.6,62.3 70.4,62.1 71.2,61.8 72,61.5 
	72.7,61.1 73.5,60.8 74.2,60.5 74.9,60.1 75.6,59.7 76.2,59.3 76.8,59 77.4,58.6 "/>
<polygon class="st4" points="62,64.6 63.3,64.5 65.1,64.2 66.1,64.1 67.2,63.9 68.3,63.6 69.6,63.3 70.8,63 72.1,62.5 73.5,62 
	74.8,61.4 75.5,61.1 76.2,60.8 76.9,60.4 77.6,60 78.3,59.6 79,59.2 79.7,58.7 80.4,58.2 80.4,58.2 80.4,58.2 80.4,58.3 80.5,58.3 
	80.5,58.6 80.4,59 80.3,59.9 80.1,61.1 79.9,62.3 79.6,63.4 79.3,64.2 79.2,64.5 79,64.6 78.8,64.7 78.5,64.9 78.2,65 77.4,65.2 
	76.4,65.4 75.3,65.6 74.1,65.7 72.8,65.9 71.5,66 70.2,66.1 69,66.2 67.8,66.2 66.6,66.2 65.6,66.2 64.7,66.2 64.4,66.1 64,66.1 
	63.8,66 63.6,66 63.2,65.8 62.8,65.6 62.5,65.4 62.2,65.2 61.9,65 61.8,64.8 61.8,64.7 61.8,64.6 61.8,64.6 "/>
<polygon class="st4" points="65.1,67.5 66.5,67.6 68.2,67.7 70.2,67.8 72.4,67.8 73.5,67.8 74.6,67.8 75.7,67.7 76.8,67.6 
	77.8,67.5 78.7,67.4 79.6,67.3 80.4,67.1 80.3,67.9 80.1,68.5 79.9,69 79.7,69.4 79.3,70.2 78.8,71.3 78,71.3 77.2,71.2 76.4,71.2 
	75.6,71.2 74.7,71.2 73.9,71.2 73,71.3 72.1,71.3 71.4,71.4 70.7,71.5 70,71.7 69.3,71.8 68.6,72 67.8,72.1 67.2,72.3 66.5,72.5 
	65.9,72.7 65.3,72.9 64.7,73.2 64.1,73.4 63.6,73.7 63.1,74 62.6,74.3 62.2,74.6 62.1,74.1 62,73.6 61.8,73.2 61.6,72.8 61.4,72.4 
	61.2,72.1 60.9,71.9 60.7,71.7 60.3,71.4 60,71.3 59.6,71.1 59.2,71 58.7,70.9 58.3,70.9 57.8,70.8 57.2,70.8 57,70.7 56.7,70.7 
	56.5,70.6 56.4,70.6 56.3,70.5 56.2,70.4 56.1,70.3 56,70.2 56,70.1 56.1,70 56.1,69.9 56.2,69.8 56.3,69.7 56.5,69.6 56.6,69.5 
	56.8,69.4 57.1,69.3 57.3,69.2 57.6,69.2 58,69.1 58.3,69.1 58.7,69.1 59.1,69.1 59.5,69.2 60,69.2 60.5,69.3 61,69.4 61.6,69.5 
	62.2,69.7 62.8,69.9 63.4,70.1 64.1,70.4 64.9,70.7 65.6,70.9 65.9,70.9 66.1,71 66.3,71 66.5,70.9 66.6,70.9 66.7,70.9 66.8,70.8 
	66.9,70.7 66.9,70.6 66.9,70.5 66.9,70.3 66.9,70.2 66.8,69.9 66.6,69.5 66.4,69.2 66.2,68.8 65.6,68.1 "/>
<polygon class="st4" points="43.8,72.7 43.8,72.6 43.8,72.5 43.8,72.5 43.7,72.5 43.4,72.5 43.2,72.7 42.7,73.1 42.4,73.3 
	42.6,73.4 42.8,73.4 43,73.4 43.1,73.4 43.3,73.4 43.4,73.4 43.5,73.3 43.6,73.3 43.7,73.2 43.8,73 43.8,72.9 "/>
<polygon class="st4" points="37.3,73.1 37.3,72.9 37.4,72.7 37.4,72.5 37.5,72.2 37.5,72 37.5,71.8 37.5,71.8 37.5,71.7 37.4,71.6 
	37.3,71.6 37.2,71.5 37.2,71.5 37.1,71.5 37,71.5 36.9,71.6 36.7,71.6 36.7,71.7 36.6,71.8 36.6,72.1 36.7,72.3 36.7,72.5 
	36.8,72.8 37,72.9 37,73 37.2,73 "/>
<polygon class="st4" points="49,75.1 49,75.1 49.1,75.1 49.1,75.1 49.2,75.1 49.2,74.9 49.3,74.8 49.4,74.3 49.6,73.8 49.8,73.5 
	50.1,73.2 50.4,72.9 50.7,72.7 51.2,72.3 51.4,72.2 51,72.2 50.7,72.3 50.4,72.5 50.1,72.7 49.7,72.9 49.4,73.1 49.1,73.3 
	48.9,73.6 48.7,73.8 48.5,74.1 48.3,74.3 48.3,74.5 48.3,74.6 48.3,74.7 48.4,74.8 48.5,74.9 48.5,75 48.7,75 48.8,75.1 "/>
<polygon class="st4" points="36.3,71.6 36.2,71.3 36.2,71 36.2,70.7 36.1,70.5 36.1,70.4 36.1,70.3 36,70.3 35.9,70.3 35.7,70.3 
	35.6,70.4 35.5,70.5 35.5,70.6 35.5,70.8 35.6,71 35.7,71.1 35.8,71.3 36,71.4 "/>
<polygon class="st4" points="37.5,68.5 37.5,68.6 37.6,68.7 37.7,68.8 37.9,68.8 38.2,68.9 38.7,69 39.1,69 39.6,69 39.9,68.9 
	40.1,68.9 40.2,68.9 40.1,68.8 40.1,68.7 39.9,68.6 39.5,68.5 38.9,68.3 38.7,68.3 38.4,68.2 38.1,68.2 37.9,68.2 37.7,68.2 
	37.6,68.2 37.5,68.3 37.5,68.3 37.5,68.4 "/>
<polygon class="st4" points="40.7,86.4 41.2,85.5 41.7,84.5 42.2,83.7 42.7,82.9 43.2,82.2 43.8,81.6 44.3,81 44.8,80.5 45.3,80 
	45.8,79.6 46.2,79.2 46.7,78.9 47.5,78.3 48.3,77.9 48,77.6 47.8,77.4 47.6,77.2 47.5,77 47.2,76.5 47,76.1 46.8,76.1 46.6,76.3 
	46.5,76.4 46.3,76.6 45.9,77.2 45.6,77.7 45.4,78.3 45,78.9 44.9,79.1 44.8,79.3 44.6,79.5 44.5,79.7 44.2,79.8 44,79.9 43.8,80 
	43.6,80 43.4,79.9 43.2,79.8 43.1,79.7 43,79.6 42.9,79.4 42.8,79.2 42.8,79.1 42.8,78.9 42.9,78.7 43,78.5 43.2,78.4 43.4,78.3 
	43.7,78 44,77.7 44.3,77.3 44.6,76.9 44.9,76.4 45.2,75.9 45.4,75.4 45.6,74.8 45.8,74.2 45.9,73.7 46,73.1 46,72.5 45.9,72 
	45.9,71.4 45.8,71.2 45.7,70.9 45.6,70.7 45.4,70.5 45.3,70.3 45.1,70.1 45,69.9 45,69.8 44.8,69.7 44.7,69.7 44.5,69.6 44.4,69.6 
	44.3,69.6 44.2,69.6 44.1,69.6 44,69.6 43.9,69.7 43.9,69.7 43.8,69.9 43.8,70.1 43.8,70.4 43.9,70.6 44.1,71 44.5,71.5 44.7,71.8 
	44.9,72.1 45.1,72.5 45.2,72.8 45.2,72.9 45.2,73.1 45.2,73.2 45.2,73.3 45.1,73.5 45,73.6 44.8,73.7 44.7,73.8 44.5,73.8 
	44.2,73.9 43.9,74 43.6,74 43.2,74 42.8,74 42.3,74 41.8,73.9 41.9,73.6 41.9,73.2 41.9,73 41.8,72.8 41.8,72.6 41.6,72.4 
	41.5,72.3 41.4,72.3 41.3,72.2 41.1,72.2 40.9,72.2 40.8,72.2 40.5,72.3 40.3,72.4 39.7,72.6 39.1,72.9 38.3,73.4 37.5,74 
	37.3,74.1 37,74.1 36.8,74.1 36.6,74 36.4,73.9 36.2,73.7 36,73.4 35.8,73.2 35.6,72.8 35.4,72.5 35.3,72.1 35.1,71.7 35,71.3 
	34.9,70.9 34.8,70.5 34.8,70.1 34.8,69.7 34.8,69.3 34.8,68.9 34.9,68.5 35,68.2 35.2,67.9 35.5,67.7 35.7,67.5 36.1,67.3 
	36.5,67.2 36.9,67.1 37.4,67.1 37.9,67.2 38.5,67.4 39.2,67.6 40,67.9 40.2,68 40.4,68 40.6,68 40.8,67.9 40.9,67.8 40.9,67.7 
	40.9,67.7 40.9,67.6 40.8,67.5 40.8,67.5 39.4,66.9 38.2,66.5 37,66.2 35.8,66.2 34.8,66.3 33.8,66.6 32.8,67 32,67.6 31.3,68.2 
	30.6,69 30,69.9 29.5,70.8 29.2,71.8 28.8,72.9 28.6,74 28.5,75.1 28.5,76.2 28.5,77.4 28.7,78.5 28.9,79.6 29.3,80.7 29.8,81.7 
	30.4,82.7 31.1,83.6 31.9,84.4 32.8,85.1 33.8,85.6 35,86.1 36.2,86.4 37.6,86.6 39.1,86.6 "/>
<polygon class="st4" points="50.5,77.5 50.3,76.9 50.1,76.2 49.9,75.9 49.8,75.7 49.7,75.6 49.6,75.6 49.5,75.7 49.4,75.7 
	49.3,75.9 49.2,76 49.2,76.1 49.2,76.3 49.2,76.5 49.4,76.8 49.5,77 49.6,77.1 49.7,77.2 49.8,77.3 50,77.4 50.2,77.4 50.3,77.5 "/>
<polygon class="st4" points="53.4,77.3 53.8,77.2 54.2,77 54.3,76.9 54.6,76.8 54.9,76.8 55.2,76.8 55.3,76.8 55.4,76.8 55.5,76.9 
	55.5,76.9 55.5,77 55.4,77.1 55.3,77.2 55.2,77.3 55.1,77.4 54.9,77.4 54.6,77.5 54.4,77.5 54.2,77.5 53.9,77.5 53.6,77.4 "/>
<polygon class="st4" points="62.7,58.6 63.1,58.4 63.5,58.3 63.9,58.1 64.5,57.8 65.4,57.7 66.2,57.6 67.1,57.5 68.1,57.3 69,57 
	70,56.7 71.1,56.4 72.1,56.1 73.2,55.7 74.2,55.3 75.4,54.8 76.5,54.3 77.6,53.8 78.8,53.2 80,52.6 81.1,52 80.9,53.1 80,53.7 
	79.1,54.3 78.1,54.9 77.1,55.5 76,56.1 74.9,56.6 73.9,57.1 72.8,57.6 71.7,58 70.6,58.4 69.5,58.8 68.4,59.1 67.4,59.3 66.4,59.5 
	65.9,59.6 65.5,59.6 65,59.7 64.5,59.7 64.2,59.7 64.2,59.7 64.3,59.6 64.5,59.5 64.7,59.5 64.9,59.4 65,59.3 65,59.2 65,59.1 
	64.9,59.1 64.8,59 64.6,58.9 64.5,58.9 64.2,58.8 63.8,58.8 63.3,58.7 62.8,58.7 62.5,58.7 62.5,58.7 62.5,58.6 62.5,58.6 "/>
<polygon class="st4" points="61.3,52.6 61.8,52.4 62.2,52.4 62.5,52.3 62.7,52.3 62.9,52.3 63.1,52.4 63.2,52.4 63.3,52.6 
	63.3,52.7 63.3,52.9 63.3,53.1 63.3,53.3 63.3,53.8 63.2,54.3 63.2,54.4 63.2,54.5 63.3,54.6 63.3,54.6 63.5,54.6 63.8,54.6 
	64.4,54.6 65.1,54.4 65.5,54.4 65.9,54.4 66.2,54.4 66.5,54.5 66.7,54.5 66.8,54.6 66.9,54.6 67,54.7 67.1,54.8 67.1,55 67.1,55.1 
	67.1,55.3 67.1,55.4 67.1,55.4 67.2,55.5 67.3,55.5 67.5,55.6 67.8,55.6 68.2,55.5 68.6,55.5 69.1,55.4 69.6,55.2 70.2,55.1 
	70.9,54.8 71.6,54.6 72.3,54.3 73,53.9 73.8,53.5 74.6,53.1 75.3,52.6 75,51.7 74.6,50.9 74.2,50.1 73.7,49.4 73.1,48.8 72.4,48.2 
	71.8,47.7 71.1,47.3 70.3,46.9 69.5,46.6 68.7,46.4 67.9,46.2 67,46 66.2,46 65.3,46 64.4,46 63.5,46.1 62.6,46.3 61.7,46.5 
	60.8,46.8 60,47.1 59.1,47.4 58.3,47.8 57.5,48.3 56.8,48.8 56.1,49.4 55.4,50 54.8,50.6 54.2,51.3 53.7,52 53.2,52.8 52.8,53.6 
	53.4,53.8 53.9,53.9 54.5,53.9 55,54 55.4,54 55.9,54 56.4,53.9 56.9,53.9 57.4,53.8 57.9,53.7 58.4,53.6 58.9,53.4 60,53.1 "/>
<polygon class="st5" points="58.1,17.8 57.9,17.8 57.6,17.7 57.4,17.7 57.2,17.6 57,17.5 56.8,17.4 56.7,17.3 56.5,17.1 56.3,16.8 
	56.1,16.5 55.9,16.1 55.9,15.8 55.8,15.4 55.9,15.1 55.9,14.8 56,14.5 56,14.2 56.1,14 56.2,13.7 56.3,13.5 56.6,13.1 56.9,12.8 
	57.3,12.5 57.6,12.4 58,12.2 58.3,12.1 58.6,12 58.9,12 59.1,12 59.2,12.1 59.2,12.1 59.3,12.2 59.3,12.2 59.2,12.3 58.8,12.9 
	58.4,13.6 58.3,13.9 58.2,14.2 58.1,14.5 58,14.8 58,15.2 57.9,15.5 57.9,15.9 57.9,16.2 58,17 "/>
<polygon class="st5" points="60.2,17.7 60,17.6 59.8,17.5 59.6,17.4 59.4,17.3 59.3,17.1 59.1,17 59,16.8 58.9,16.6 58.9,16.4 
	58.8,16.2 58.8,16 58.8,15.7 58.8,15.2 58.9,14.8 59,14.3 59.2,13.7 59.4,13.2 59.7,12.8 60,12.4 60.4,12 60.7,11.7 61.1,11.4 
	61.4,11.2 61.6,11.1 61.8,11.1 62.1,11.1 62.3,11.1 62.5,11.3 62.7,11.4 63,11.7 63.3,12.1 63.5,12.6 63.8,13.1 63.9,13.7 
	64.1,14.3 64.2,14.8 64.2,15.4 64.2,15.9 64.1,16.2 64,16.4 64,16.7 63.8,16.9 63.7,17.1 63.5,17.2 63.3,17.4 63.1,17.5 62.9,17.7 
	62.6,17.8 62.3,17.8 61.9,17.9 61.6,17.9 61.1,17.8 60.7,17.8 "/>
<polygon class="st5" points="64.8,16.8 64.8,17 64.9,17.1 65,17.2 65.2,17.2 65.3,17.3 65.5,17.3 65.6,17.3 65.8,17.3 66,17.3 
	66.2,17.2 66.4,17.1 66.6,16.9 66.8,16.8 67,16.6 67.1,16.3 67.3,16 67.4,15.8 67.5,15.5 67.5,15.1 67.4,14.8 67.3,14.4 67.3,14 
	67.1,13.7 66.9,13.3 66.7,13 66.4,12.6 66.2,12.3 65.8,12 65.5,11.8 65.1,11.6 64.7,11.5 64.3,11.4 64.2,11.3 64.1,11.4 64.1,11.4 
	64,11.4 64,11.6 64.1,11.8 64.3,12.4 64.5,13.1 64.7,13.5 64.8,14 64.9,14.4 65,14.9 65.1,15.4 65,15.9 64.9,16.4 "/>
<polygon class="st4" points="58.4,11.2 58.4,10.9 58.5,10.7 58.7,10.5 58.9,10.3 59.1,10.1 59.3,10 59.4,9.9 59.4,9.9 59.5,9.9 
	59.6,9.9 59.6,10 59.6,10.2 59.5,10.3 59.4,10.5 59.3,10.9 59.1,11.1 58.7,11.1 "/>
<polygon class="st6" points="60.1,9.5 60.2,9.4 60.2,9.4 60.3,9.3 60.4,9.3 60.6,9.4 60.7,9.4 60.9,9.5 61,9.7 61.2,9.8 61.3,9.9 
	61.4,10 61.4,10.1 61.4,10.2 61.4,10.3 61.4,10.4 61.3,10.5 60.9,10.8 60.3,11.3 60.1,11.2 60,11.1 59.8,11.1 59.4,11.1 59.7,10.7 
	59.8,10.3 60,9.9 "/>
<polygon class="st7" points="62.5,10.4 62.4,10.3 62.3,10.2 62.3,10.1 62.3,10.1 62.3,10 62.4,10 62.5,10 62.5,9.9 62.7,9.9 
	62.9,9.9 63,10 63.2,10 63.4,10.1 63.6,10.2 63.8,10.4 64,10.5 63.8,10.5 63.7,10.5 63.6,10.5 63.5,10.6 63.3,10.7 63.2,10.9 
	63,10.8 62.9,10.6 62.7,10.5 "/>
<polygon class="st4" points="59.8,18.4 59.7,18.4 59.7,18.4 59.7,18.4 59.8,18.4 59.8,18.4 60,18.4 60.6,18.5 61.3,18.6 61.6,18.6 
	62,18.5 62.5,18.5 62.9,18.4 63.3,18.3 63.6,18 63.8,17.9 64,17.7 64.1,17.6 64.3,17.4 64.4,17.6 64.6,17.8 64.6,18 64.5,18.2 
	64.4,18.5 64.2,18.7 64,18.9 63.7,19 63.4,19.2 63.1,19.3 62.7,19.4 62.2,19.4 61.8,19.4 61.4,19.3 61,19.2 60.5,19 60.2,18.8 "/>
<polygon class="st4" points="53.9,67.3 54,67.2 54.1,67.1 54.3,67.1 54.5,67 54.8,67.1 55.1,67.2 55.3,67.3 55.5,67.4 55.6,67.5 
	55.7,67.6 55.8,67.8 55.9,67.9 55.9,68.1 56,68.2 56,68.4 56,68.6 55.9,68.8 55.8,69.1 55.8,69.3 55.6,69.6 55.5,69.8 55.3,70.1 
	55.1,70.5 54.8,70.8 54.7,71 54.7,71.1 54.7,71.3 54.7,71.4 54.8,71.5 54.9,71.7 55.2,71.7 55.4,71.7 56,71.7 56.7,71.7 57.1,71.7 
	57.4,71.9 57.6,71.9 57.7,72 57.9,72.1 58,72.3 58.1,72.5 58.1,72.5 58.1,72.6 58,72.6 57.6,72.6 57.2,72.5 56.9,72.4 56.5,72.4 
	56.2,72.4 55.9,72.4 55.6,72.4 55.3,72.5 54.9,72.6 54.7,72.8 54.5,72.9 54.5,73 54.5,73.2 54.5,73.3 54.7,73.7 55,74 55.1,74.2 
	55.2,74.4 55.3,74.7 55.3,74.9 55.3,75.2 55.3,75.4 55.2,75.7 55,76.1 54.8,76.3 54.7,76.4 54.5,76.5 54.4,76.5 54.3,76.5 
	54.3,76.4 54.2,76.3 54.1,76.1 54,75.7 53.8,75.1 53.7,74.6 53.4,74.1 53.3,73.8 53.1,73.6 53,73.4 52.8,73.3 52.7,73.2 52.6,73.1 
	52.4,73.1 52.3,73.1 52.2,73.1 52.1,73.2 52,73.3 51.9,73.4 51.7,73.6 51.6,73.9 51.3,74.6 51,75.3 51,75.6 50.9,75.8 50.8,75.9 
	50.7,75.9 50.7,75.9 50.7,75.9 50.5,75.8 50.3,75.6 50.2,75.4 50.2,75.2 50.2,75 50.2,74.8 50.2,74.6 50.3,74.3 50.6,73.8 51,73.3 
	51.5,72.7 52.1,72.1 52.6,71.4 53.1,70.7 53.3,70.3 53.4,69.9 53.5,69.5 53.6,69.1 53.7,68.2 "/>
<polygon class="st4" points="62.8,20.1 62.4,20.1 61.9,20.2 61.5,20.1 61.1,20 61.2,20.3 61.3,20.6 61.4,20.9 61.4,21.2 61.5,21.9 
	61.5,22.5 61.8,22 62.1,21.5 62.5,21 62.9,20.4 62.9,20.3 "/>
<polygon class="st4" points="61.5,25.8 61.7,24.8 61.9,24 62.1,23.3 62.3,22.7 62.5,22.4 62.6,22.2 62.8,21.9 63,21.7 63.4,21.2 
	64,20.7 64.3,20.5 64.5,20.3 64.8,20.2 65.1,20.1 65.3,20 65.5,20 65.8,20 66,20.1 66.2,20.1 66.3,20.2 66.5,20.3 66.6,20.4 
	66.9,20.7 67.1,21 67.3,21.4 67.5,21.7 67.5,22 67.6,22.3 67.5,22.6 67.5,22.7 67.5,22.7 67.4,22.8 67.3,22.7 67.3,22.7 67.1,22.5 
	66.9,22.4 66.7,22.3 66.4,22.2 66.2,22.1 66,22.1 65.8,22 65.6,22 65.5,22 65.3,22 65.1,22.1 64.9,22.1 64.5,22.3 64.2,22.5 
	63.9,22.8 63.6,23.1 63.3,23.5 63.1,23.9 62.9,24.3 62.8,24.7 62.7,25.1 62.6,25.6 62.1,25.7 "/>
<polygon class="st4" points="52.8,21.8 52.7,21.8 52.7,21.8 52.6,21.8 52.6,21.7 52.6,21.6 52.7,21.5 52.9,21 53.4,20.5 54,19.8 
	54.7,19.2 55.1,18.8 55.4,18.6 55.8,18.3 56.2,18.1 56.5,18.3 56.7,18.4 57,18.6 57.4,18.7 56.8,18.9 56.3,19.2 55.9,19.4 
	55.5,19.7 54.8,20.2 54.2,20.6 53.3,21.4 "/>
<polygon class="st4" points="66.2,10.8 66.2,10.6 66.2,10.4 66.2,10.1 66.3,9.8 66.5,9.6 66.7,9.3 66.9,9 67.1,8.7 67.3,8.4 
	67.5,8.2 67.8,8 68,7.8 68.2,7.7 68.4,7.6 68.4,7.6 68.5,7.6 68.6,7.6 68.6,7.6 68.7,7.7 68.6,7.9 68.6,8.1 68.5,8.5 68.2,9.1 
	67.8,9.9 67.6,10.2 67.4,10.5 67.1,10.8 66.9,11 66.8,11 66.7,11.1 66.6,11.1 66.5,11.1 66.4,11.1 66.4,11 66.3,10.9 "/>
<polygon class="st4" points="61.4,33.6 61.4,33.6 61.4,33.6 61.3,33.6 61.3,33.5 61.3,33.4 61.3,33.2 61.3,32.6 61.3,32 61.4,31.3 
	61.6,30.7 61.7,30.1 61.8,29.7 62,29.8 62.2,29.8 62.5,29.8 62.7,29.8 62.7,29.9 62.8,30.1 62.8,30.3 62.8,30.6 62.7,31.2 
	62.5,31.8 62.4,32.5 62.1,33 61.9,33.2 61.8,33.4 61.6,33.6 "/>
<polygon class="st4" points="72.1,8.4 72,8.3 72,8.2 71.9,8.1 71.8,8.1 71.6,8 71.3,7.9 71,7.9 70.6,8 70.3,8.1 69.9,8.4 69.5,8.6 
	69.1,8.9 68.7,9.3 68.3,9.7 68,10.3 67.6,10.9 67.3,11.5 66.9,12.2 67.3,12.6 67.5,13 67.8,13.5 67.9,14 68.1,14.5 68.2,15 
	68.2,15.5 68.2,16 68.1,16.4 68,16.8 67.9,17.1 67.8,17.2 67.6,17.4 67.5,17.6 67.3,17.7 67.1,17.9 66.9,18 66.6,18.1 66.4,18.2 
	66.1,18.2 65.8,18.3 65.5,18.3 65.3,18.5 65.2,18.7 65,19 64.8,19.2 64.5,19.4 64.2,19.5 64,19.6 63.6,19.7 63.7,19.9 63.8,20.1 
	64.2,19.8 64.6,19.6 65.1,19.4 65.5,19.3 65.8,19.2 66,19.2 66.2,19.2 66.4,19.2 66.6,19.3 66.8,19.4 67,19.5 67.2,19.6 67.9,18.6 
	68.6,17.7 69.3,16.8 69.8,15.9 70.3,15 70.8,14.2 71.2,13.4 71.5,12.7 71.8,11.9 72,11.3 72.1,10.6 72.2,10.1 72.2,9.6 72.2,9.1 
	72.2,8.7 "/>
<polygon class="st4" points="61.7,27.2 61.7,27.2 61.8,27.1 61.8,27.1 62,27 62.2,27 62.5,26.9 62.9,26.9 63.1,26.9 63.2,26.9 
	63.3,26.9 63.3,27 63.3,27 63.3,27 63.3,27.1 63.2,27.2 63.1,27.2 62.8,27.3 62.5,27.4 62.2,27.4 61.9,27.4 61.8,27.4 61.8,27.3 
	61.7,27.3 "/>
<polygon class="st4" points="62,27.8 62.1,27.7 62.3,27.7 62.5,27.6 62.7,27.6 63.1,27.5 63.5,27.5 63.7,27.5 63.9,27.5 63.9,27.6 
	63.9,27.6 63.9,27.7 63.8,27.8 63.8,27.9 63.7,28 63.6,28 63.5,28 63.1,28.1 62.8,28.1 62.4,28.1 62.2,28 62.1,28 62,27.9 62,27.9 
	"/>
<polygon class="st4" points="62.2,28.6 62.7,28.6 63.2,28.5 63.5,28.5 63.6,28.6 63.7,28.6 63.7,28.6 63.8,28.7 63.8,28.7 
	63.8,28.9 63.7,28.9 63.6,29 63.5,29 63.2,29 62.9,29 62.5,28.9 62.3,28.8 62.2,28.7 62.2,28.7 62.2,28.6 "/>
<polygon class="st4" points="62.9,29.3 63,29.4 63,29.4 62.9,29.4 62.9,29.4 62.7,29.4 62.4,29.4 62.2,29.3 62,29.2 62,29.1 
	61.9,29.1 61.9,29 62,29 62,28.9 62.1,28.9 62.2,28.9 62.4,29 62.5,29 62.7,29.1 62.8,29.2 "/>
<polygon class="st8" points="38.5,21.6 38.3,23.2 38.3,24.1 38.3,24.2 38.3,24.3 38.3,24.4 38.3,24.5 38.4,24.5 38.5,24.5 
	38.6,24.5 38.7,24.5 39,24.5 39.5,24.4 40.1,24.4 40.8,24.3 41.7,24.3 42.6,24.4 43.6,24.5 44.6,24.6 44.7,24.7 44.7,24.6 
	44.8,24.6 44.8,24.5 44.9,24.3 44.9,24 44.8,23 44.7,21.6 44.3,22.1 44,22.4 43.9,22.5 43.8,22.6 43.8,22.7 43.7,22.7 43.6,22.7 
	43.5,22.6 43.4,22.5 43.3,22.4 43,22 42.7,21.5 42.3,22.1 42,22.5 41.8,22.7 41.7,22.7 41.6,22.8 41.5,22.8 41.4,22.7 41.2,22.7 
	41.1,22.6 41,22.4 40.7,22 40.3,21.4 40,21.9 39.7,22.2 39.6,22.4 39.4,22.5 39.4,22.5 39.3,22.5 39.2,22.4 39.1,22.3 38.8,22.1 "/>
<polygon class="st4" points="38.1,28.4 38.2,28.4 38.4,28.3 38.6,28.3 38.8,28.3 38.9,28.3 38.9,28.3 38.9,28.4 38.8,28.4 
	38.7,28.5 38.6,28.6 38.4,28.6 38.2,28.6 38.1,28.6 38.1,28.6 38.1,28.5 "/>
<polygon class="st4" points="38,27.9 37.9,27.8 37.9,27.6 37.9,27.5 37.8,27.5 37.6,27.4 37.4,27.3 37.4,27.1 37.3,27 37.3,26.9 
	37.4,26.8 37.5,26.7 37.6,26.6 37.9,26.3 38.2,25.9 38.3,25.7 38.5,25.5 38.6,25.3 38.7,25 38.9,24.9 39.2,24.9 39.4,24.8 
	39.7,24.8 40.1,24.8 40.3,24.8 40.6,24.8 40.7,24.8 41,25.4 41.3,26.1 41.5,26.5 41.8,26.9 42.1,27.4 42.5,27.9 42.5,28.1 
	42.5,28.3 42.3,28.4 42.2,28.6 42,28.7 41.8,28.9 41.6,29 41.3,29.1 40.8,29.3 40.3,29.5 39.7,29.6 39.3,29.7 39.1,29.7 38.9,29.6 
	38.8,29.5 38.7,29.4 38.6,29.1 38.6,28.9 38.8,28.8 39,28.6 39.1,28.6 39.2,28.5 39.2,28.4 39.3,28.3 39.2,28.2 39.1,28.1 39,28 
	38.7,27.9 38.3,27.9 "/>
<polygon class="st9" points="43.8,29.4 43.9,29.5 44.1,29.7 44.3,30 44.5,30.3 44.7,30.6 44.8,30.9 44.8,31.1 44.8,31.3 44.8,31.3 
	44.7,31.4 44.7,31.4 44.6,31.4 44.5,31.4 44.4,31.4 44.3,31.3 44.3,31.2 44.1,30.9 44,30.5 43.9,30 "/>
<polygon class="st10" points="41.8,24.8 42.5,24.9 43.2,24.9 43.8,25 44.3,25.1 44.7,25.7 44.9,26.2 45.1,26.5 45.3,26.7 45.6,27.1 
	45.9,27.4 46.5,27.9 46.9,28.3 47.3,28.8 47.6,29.3 47.9,29.9 48.2,30.5 48.4,31.3 48.6,32.1 48.2,32 47.8,31.9 47.4,31.9 47,31.9 
	46.3,31.9 45.8,31.9 45.7,31.4 45.6,31 45.4,30.6 45.1,30.2 44.8,29.8 44.5,29.4 44.1,29 43.5,28.5 43.1,28.1 42.8,27.5 42.4,26.9 
	42.1,26.3 41.8,25.8 41.6,25.3 41.6,25.1 41.6,25 41.6,24.9 41.7,24.9 41.7,24.8 "/>
<polygon class="st4" points="52.9,28.1 52.5,27.8 52.1,27.4 51.9,27.1 51.7,26.7 51.5,26.4 51.4,26 51.4,25.6 51.5,25.3 51.6,24.9 
	51.7,24.5 51.9,24.1 52.1,23.8 52.3,23.4 52.6,23 52.9,22.6 53.3,22.3 54,21.6 54.8,21 55.5,20.4 56.3,19.9 57,19.5 57.6,19.2 
	58,19.1 58.2,19 58.4,18.9 58.6,18.9 58.9,19.2 59.2,19.4 59.5,19.5 59.9,19.7 60.1,20.1 60.3,20.5 60.4,20.8 60.4,21.2 60.2,21.1 
	60,21.1 59.8,21 59.6,21 59.4,20.9 59.2,20.9 59,21 58.8,21 58.5,21.1 58.1,21.3 57.8,21.5 57.4,21.8 57.1,22.1 56.9,22.5 56.6,23 
	56.4,23.5 56.2,24 56,24.6 55.8,25.3 55.7,25.9 55.7,26.1 55.7,26.2 55.8,26.3 55.8,26.3 55.9,26.3 56,26.3 56.1,26.3 56.3,26.3 
	56.9,25.9 57.8,25.5 58.2,25.3 58.7,25.1 58.9,25.1 59.1,25 59.3,25 59.5,25 59.6,25 59.8,25 60,25.1 60.1,25.2 60.3,25.3 
	60.4,25.5 60.4,25.7 60.5,25.9 59.8,26.1 59.2,26.3 58.8,26.4 58.5,26.6 58.2,26.8 57.9,27 57.5,27.4 57.2,27.8 56.9,28.4 56.5,29 
	56.1,29.8 55.7,30.8 55.3,31.8 54.9,33.1 54.6,33.8 54.3,34.5 54.2,34.7 54,34.9 53.9,35 53.8,35.2 53.6,35.3 53.5,35.3 53.3,35.3 
	53.2,35.4 53.1,35.3 52.9,35.3 52.8,35.2 52.6,35.1 52.3,34.9 52,34.6 51.7,34.2 51.4,33.9 51,33.5 50.7,33.1 50.3,32.7 49.9,32.4 
	49.8,32.2 49.6,32 49.6,31.8 49.6,31.5 49.6,31.3 49.7,31 49.8,30.8 50,30.5 50.2,30.2 50.5,29.9 50.8,29.6 51.1,29.3 51.5,29 
	52,28.7 52.4,28.4 "/>
<polygon class="st4" points="46.8,44.9 46.7,44.1 46.7,43.2 46.7,42.4 46.7,41.5 46.9,40.5 47,39.5 47.2,38.4 47.4,37.2 47.5,37.1 
	47.6,37.1 47.7,37.1 47.8,37.1 48.1,37.2 48.6,37.4 49.7,38 51,38.7 51.6,39.1 52.3,39.4 53.1,39.8 53.7,40.1 54.3,40.3 54.9,40.5 
	55.2,40.5 55.4,40.6 55.6,40.6 55.8,40.5 56,40.5 56.2,40.4 56.3,40.3 56.5,40.2 56.8,39.7 57.1,39.2 57.4,38.6 57.8,37.9 
	58.1,37.1 58.4,36.3 58.8,34.7 59.2,33.3 59.5,32.2 59.6,31.6 59.7,30.7 59.8,30.2 59.8,30.2 59.8,30.1 59.9,30.1 60,30.1 60.4,30 
	60.9,30 60.8,30.6 60.6,31.4 60.5,32.5 60.4,33.6 60.3,34.1 60.3,34.6 60.4,35 60.5,35.3 60.5,35.3 60.6,35.4 60.7,35.5 60.8,35.5 
	60.9,35.5 61.1,35.4 61.2,35.3 61.4,35.2 61.6,35 61.9,34.8 62.1,34.6 62.4,34.3 62.6,34 62.8,33.7 63,33.3 63.2,33 63.3,32.6 
	63.5,32.2 63.6,31.8 63.7,31.5 63.7,31.1 63.7,30.7 63.7,30.4 63.6,30 63.7,29.9 63.8,29.8 63.9,29.8 64,29.6 64.2,29.4 64.3,29 
	64.4,28.6 64.4,28.3 64.4,27.9 64.4,27.5 64.4,27.1 64.4,26.7 64.2,26.4 64.1,26.1 64,25.9 63.8,25.7 63.7,25.6 63.6,25.6 
	63.5,25.6 63.3,25.6 63.4,25 63.5,24.6 63.7,24.1 63.9,23.8 64.2,23.5 64.4,23.2 64.7,23 65,22.9 65.2,22.8 65.3,22.8 65.5,22.8 
	65.7,22.8 65.8,22.8 66,22.9 66.2,22.9 66.4,23 66.7,23.2 67,23.5 67.3,23.8 67.6,24.2 67.8,24.4 67.9,24.6 68,24.6 68.1,24.6 
	68.2,24.6 68.2,24.6 68.4,24.5 68.5,24.3 68.6,24 68.7,23.7 68.7,23.4 68.8,23 68.8,22.6 68.7,22.2 68.7,21.8 68.6,21.4 68.5,21 
	68.3,20.6 69.4,18.5 70.3,16.8 70.9,15.4 71.5,14.4 71.7,14 71.9,13.7 72,13.4 72.2,13.2 72.4,13.1 72.5,13.1 72.7,13.1 72.8,13.2 
	73.2,13.4 73.5,13.8 73.7,14.2 73.8,14.8 73.8,15.3 73.8,16 73.7,16.8 73.6,17.5 73.4,18.4 73.2,19.2 72.9,20.1 72.6,21.1 72.2,22 
	71.8,23 71.4,24 70.9,25 70.5,26 70,27 69.5,27.9 68.9,28.9 68.4,29.8 67.8,30.7 67.3,31.6 66.7,32.4 66.2,33.1 65.6,33.8 
	65.1,34.5 64.5,35.1 64.1,35.6 63.6,36 63.1,36.3 62.7,36.6 62.1,36.9 61.6,37.1 61.4,37.2 61.1,37.4 60.9,37.7 60.6,38.1 
	60.1,38.9 59.7,39.6 59.3,40.1 58.9,40.5 58.7,40.6 58.5,40.8 58.4,40.9 58.2,41 57.7,41.2 57.1,41.3 56.9,41.3 56.7,41.4 
	56.6,41.5 56.5,41.6 56.5,41.7 56.4,41.8 56.4,41.9 56.4,42 56.4,42.3 56.4,42.5 56.4,42.7 56.3,42.8 56.2,42.9 56.1,42.9 55.8,43 
	54.9,43.1 53.7,43.2 52.3,43.4 51.5,43.5 50.7,43.6 50,43.8 49.2,44 48.5,44.2 47.9,44.4 47.3,44.6 "/>
<polygon class="st11" points="46.7,40.5 46.8,40.3 46.8,40.1 46.9,39.8 46.9,39.6 47,39 47.2,38.4 47.3,37.8 47.4,37.2 47.5,37.1 
	47.6,37.1 47.8,37.1 47.9,37.1 48.2,37.2 48.4,37.3 48.7,37.4 49,37.6 49.4,37.7 49.7,37.9 49.6,38.3 49.6,38.6 49.4,39 49.2,39.3 
	49,39.6 48.9,39.9 48.6,40.2 48.4,40.4 48.1,40.6 47.9,40.7 47.6,40.8 47.4,40.9 47.2,40.9 47,40.8 46.9,40.7 "/>
<polygon class="st12" points="47,39.6 47.1,39 47.2,38.4 47.3,37.8 47.4,37.2 47.5,37.1 47.6,37.1 47.7,37.1 47.9,37.1 48.3,37.3 
	48.8,37.5 48.7,37.7 48.7,38 48.6,38.2 48.5,38.5 48.3,38.9 48.1,39.2 47.9,39.3 47.8,39.5 47.6,39.6 47.5,39.6 47.4,39.7 
	47.2,39.7 47.1,39.6 "/>
<polygon class="st2" points="39.4,25.4 39.7,25.3 40,25.4 40.3,25.4 40.5,25.5 40.6,25.6 40.7,25.6 40.7,25.7 40.6,25.8 40.5,25.9 
	40.2,26 40,26.1 39.7,26.2 39.6,26.2 39.4,26.2 39.2,26.2 39.1,26.1 39,26 39,26 38.9,25.9 38.9,25.9 39,25.8 39,25.8 39.2,25.8 
	39.3,25.8 39.5,25.9 39.7,26 39.8,26 40,26 40.2,25.9 40.4,25.6 39.9,25.7 39.5,25.7 39.2,25.7 39,25.7 38.8,25.6 38.8,25.6 
	38.8,25.5 38.9,25.5 39.2,25.4 "/>
<polygon class="st13" points="39.5,25.4 39.8,25.4 40.1,25.4 40.3,25.5 40.6,25.6 40.7,25.6 40.7,25.7 40.7,25.8 40.7,25.8 
	40.5,25.9 40.3,26.1 40.1,26.2 39.8,26.2 39.6,26.3 39.5,26.3 39.3,26.2 39.2,26.2 39.1,26.1 39,26 39,26 39,25.9 39,25.9 
	39.1,25.9 39.2,25.9 39.4,25.9 39.6,26 39.8,26.1 39.9,26.1 40.1,26.1 40.3,25.9 40.5,25.7 40,25.7 39.6,25.7 39.3,25.7 39.1,25.7 
	38.9,25.7 38.8,25.6 38.9,25.6 39,25.5 39.2,25.5 "/>
<polygon class="st2" points="39.7,25.6 39.8,25.6 39.8,25.7 39.8,25.8 39.7,25.9 39.7,26 39.6,26.1 39.4,26.1 39.4,26.1 39.3,26 
	39.2,25.9 39.2,25.8 39.3,25.7 39.4,25.6 39.5,25.6 39.6,25.6 "/>
<polygon class="st13" points="39.8,25.7 39.9,25.7 39.9,25.8 39.9,25.9 39.8,26 39.8,26.1 39.6,26.1 39.5,26.2 39.4,26.1 39.4,26.1 
	39.3,26 39.3,25.9 39.4,25.8 39.5,25.7 39.6,25.7 39.7,25.6 "/>
<polygon class="st2" points="38.3,27.2 38.3,27.2 38.4,27.3 38.5,27.3 38.5,27.4 38.5,27.4 38.4,27.4 38.3,27.4 38.2,27.4 
	38.1,27.3 38,27.3 38,27.3 38,27.2 38,27.2 38.1,27.2 38.1,27.2 "/>
<polygon class="st13" points="38.3,27.3 38.4,27.3 38.5,27.3 38.5,27.4 38.5,27.4 38.5,27.5 38.5,27.5 38.4,27.5 38.3,27.5 
	38.2,27.4 38.1,27.4 38.1,27.3 38.1,27.3 38.1,27.3 38.1,27.2 38.2,27.2 "/>
<polygon class="st4" points="44.2,98.3 43.7,97.4 43.3,96.6 42.9,95.7 42.6,94.9 42.4,94 42.2,93.2 42.1,92.4 42,91.6 42,90.8 
	42.1,90.1 42.2,89.3 42.3,88.6 42.5,87.9 42.8,87.2 43,86.5 43.4,85.9 43.7,85.2 44.1,84.6 44.5,84.1 44.9,83.5 45.4,83 45.9,82.5 
	46.4,82 46.9,81.6 47.4,81.2 47.9,80.8 48.5,80.5 49.1,80.2 49.6,80 50.2,79.8 50.8,79.6 51.4,79.4 51.5,79.4 51.5,79.4 51.5,79.3 
	51.5,79.2 51.4,78.9 51.3,78.3 51.2,77.4 51.3,76.6 51.3,76.3 51.4,76 51.4,75.7 51.5,75.5 51.6,75.3 51.7,75.2 51.8,75.1 51.9,75 
	52,74.9 52.1,74.9 52.2,74.9 52.3,74.9 52.5,74.9 52.5,75 52.7,75.1 52.7,75.2 52.9,75.4 52.9,75.7 53,76.1 52.9,76.4 52.8,76.6 
	52.7,76.8 52.6,77 52.5,77.3 52.4,77.3 52.4,77.3 52.4,77.4 52.5,77.5 52.6,77.6 52.8,77.7 53,77.8 53.3,77.9 53.6,77.9 53.9,78 
	54.3,78 54.6,77.9 55,77.9 55.3,77.7 55.4,77.7 55.6,77.6 55.7,77.4 55.8,77.3 56,77.2 56.1,77 56.2,76.8 56.2,76.6 56.2,76.2 
	56,75.4 56,75.2 56.1,74.9 56.1,74.7 56.2,74.5 56.3,74.2 56.5,74 56.7,73.8 56.9,73.7 57.2,73.5 57.5,73.4 57.8,73.3 58.2,73.3 
	58.5,73.3 58.8,73.3 59.2,73.4 59.5,73.5 59.8,73.6 60,73.8 60.3,74 60.5,74.2 60.7,74.5 60.9,74.8 60.9,75.1 61,75.5 60.5,75.8 
	60,76.2 59.6,76.7 59.2,77.1 58.8,77.6 58.4,78 58.1,78.5 57.8,79 57.5,79.6 57.2,80.1 56.9,80.7 56.7,81.2 56.5,81.8 56.3,82.4 
	56.2,83 56,83.6 55.9,84.2 55.8,84.9 55.8,85.5 55.7,86.2 55.6,87.5 55.7,88.8 55.8,90.2 56,91.5 56.2,92.9 56.5,94.3 59.4,92.7 
	59.1,91.8 58.9,91 58.6,90.2 58.5,89.4 58.4,88.6 58.3,87.9 58.2,87.1 58.2,86.3 58.3,85.6 58.3,84.9 58.4,84.2 58.5,83.6 
	58.7,82.9 58.9,82.3 59.1,81.6 59.4,81 59.7,80.4 60,79.9 60.4,79.3 60.7,78.8 61.1,78.3 61.6,77.8 62,77.3 62.5,76.8 63,76.4 
	63.5,76 64,75.6 64.6,75.3 65.1,74.9 65.7,74.6 66.4,74.3 67,74 67.6,73.7 68.2,73.5 68.9,73.3 69.6,73.2 70.3,73 71,72.9 
	71.7,72.8 72.4,72.7 73.2,72.7 73.9,72.6 74.6,72.6 75.3,72.6 76,72.7 76.8,72.7 77.5,72.8 78.1,72.9 77.9,74.1 77.6,75.2 
	77.1,76.3 76.6,77.3 76,78.4 75.3,79.5 74.5,80.6 73.6,81.6 72.7,82.6 71.7,83.6 70.6,84.6 69.5,85.6 68.4,86.6 67.2,87.5 66,88.4 
	64.7,89.3 63.4,90.1 62.1,90.9 60.8,91.7 59.4,92.4 58.1,93.2 56.7,93.9 55.4,94.5 54,95.1 52.7,95.7 51.4,96.2 50.1,96.6 
	48.9,97.1 47.6,97.5 46.5,97.8 45.3,98.1 "/>
<polygon class="st4" points="12.3,74.9 12.8,74.8 13.6,74.6 14.7,74.5 15.9,74.3 16.5,74.3 17.1,74.2 17.6,74.2 18,74.2 18.5,74.3 
	18.8,74.3 18.9,74.4 19,74.4 19,74.5 19.1,74.5 19.1,75.3 19.2,76 19.4,76.5 19.6,77 19.7,77.2 19.8,77.4 20,77.6 20.1,77.8 
	20.3,77.9 20.5,78.1 20.8,78.2 21,78.4 20.3,78.5 19.7,78.6 19,78.7 18.4,78.7 17.8,78.7 17.3,78.7 16.7,78.7 16.2,78.6 15.7,78.5 
	15.3,78.4 14.8,78.3 14.4,78.2 14,78 13.7,77.9 13.4,77.7 13.1,77.5 12.8,77.3 12.6,77.2 12.4,77 12.2,76.8 12,76.6 11.9,76.4 
	11.8,76.2 11.7,76 11.7,75.8 11.7,75.7 11.7,75.5 11.7,75.3 11.9,75.2 11.9,75.1 12.1,74.9 "/>
<polygon class="st4" points="68.1,8.8 68.4,7.7 68.6,6.7 68.9,5.8 69.3,4.9 69.5,4.6 69.6,4.3 69.8,4.1 70,3.9 70.1,3.9 70.2,3.8 
	70.3,3.8 70.4,3.8 70.5,3.8 70.6,3.9 70.6,3.9 70.7,4 70.9,4.3 71.1,4.7 71.2,5.1 71.3,5.5 71.3,5.9 71.3,6.4 71.3,6.9 71.2,7.3 
	71.1,7.8 70.9,8.3 70.8,8.8 70.6,9.2 70.4,9.7 70.2,10.1 70,10.5 69.8,10.9 69.6,11.2 69.3,11.5 69.1,11.7 68.9,11.9 68.7,12.1 
	68.6,12.2 68.4,12.2 68.2,12.1 68.1,12 68,11.8 67.9,11.6 67.9,11.2 67.9,10.7 67.9,10.2 68,9.5 "/>
<polygon class="st4" points="56.8,25.3 57.3,25 57.8,24.6 58.4,24.3 59,24 59.2,23.9 59.5,23.9 59.8,23.8 60,23.8 60.2,23.9 
	60.5,23.9 60.7,24.1 60.8,24.3 60.9,23.9 60.9,23.7 61,23.4 61.1,23.1 60.9,22.7 60.7,22.4 60.4,22.2 60.2,22 60,21.8 59.7,21.7 
	59.5,21.7 59.3,21.7 59.1,21.7 58.8,21.8 58.6,21.9 58.4,22 58.2,22.2 58,22.4 57.8,22.6 57.6,22.8 57.3,23.2 57,23.7 56.8,24.2 
	56.6,24.6 56.5,25 56.5,25.2 56.5,25.3 56.6,25.3 56.7,25.3 "/>
<polygon class="st2" points="82.4,41.3 82.6,43.4 82.6,45.5 82.6,47.6 82.5,49.8 82.4,51.9 82.2,54 82.1,56.1 81.9,58 81.6,59.9 
	81.4,61.8 81.1,63.4 80.9,65 80.6,66.4 80.3,67.7 80,68.8 79.8,69.7 78.4,69.1 77.2,68.4 76,67.7 74.9,66.8 74,65.9 73.1,65 
	72.4,63.9 71.7,62.8 71.1,61.7 70.7,60.6 70.3,59.4 70,58.2 69.8,57 69.7,55.8 69.7,54.6 69.8,53.4 70,52.2 70.2,51.1 70.6,50 
	71,48.8 71.5,47.8 72.1,46.8 72.7,45.9 73.5,45 74.4,44.2 75.3,43.5 76.3,42.9 77.4,42.3 78.5,41.9 79.8,41.6 81.1,41.3 "/>
<polygon class="st13" points="82.5,41.3 82.6,43.4 82.7,45.6 82.6,47.7 82.6,49.9 82.5,52 82.3,54.1 82.2,56.1 81.9,58.1 81.7,60 
	81.5,61.8 81.2,63.5 81,65.1 80.7,66.5 80.4,67.8 80.1,68.8 79.9,69.8 78.5,69.2 77.3,68.5 76.1,67.7 75,66.9 74.1,66 73.2,65 
	72.4,64 71.8,62.9 71.2,61.8 70.7,60.7 70.4,59.5 70.1,58.3 69.9,57.1 69.8,55.9 69.8,54.7 69.9,53.5 70,52.3 70.3,51.1 70.6,50 
	71.1,48.9 71.6,47.9 72.2,46.9 72.8,45.9 73.6,45.1 74.4,44.3 75.4,43.6 76.4,42.9 77.5,42.4 78.6,42 79.9,41.6 81.1,41.4 "/>
<polygon class="st4" points="82.7,43.2 82.6,45.2 82.4,47.1 82.3,49 82.2,50.8 82.1,52.6 82,54.4 81.9,56 81.8,57.6 81.6,59.1 
	81.5,60.6 81.3,62 81.2,63.3 81,64.5 80.8,65.6 80.6,66.6 80.4,67.5 79,66.9 77.7,66.1 76.6,65.4 75.6,64.5 74.7,63.6 73.9,62.7 
	73.3,61.8 72.7,60.7 72.3,59.7 71.9,58.7 71.7,57.6 71.5,56.6 71.5,55.5 71.5,54.4 71.6,53.4 71.8,52.3 72.1,51.3 72.5,50.4 
	72.9,49.4 73.3,48.5 73.9,47.6 74.5,46.8 75.1,46.1 75.8,45.4 76.6,44.8 77.3,44.3 78.2,43.9 79,43.5 79.9,43.3 80.8,43.2 
	81.7,43.1 "/>
<path class="st1" d="M5.8,0v1.4H5.7H5.5H5.4H5.3l-0.1,0H5.1L5,1.5H4.9l-0.1,0H4.7l-0.1,0l-0.1,0l-0.1,0l-0.1,0l-0.1,0l-0.1,0l-0.1,0
	L4,1.8l-0.1,0L3.8,1.9l-0.1,0L3.7,2L3.6,2l-0.1,0L3.4,2.1L3.3,2.2l0,0L3.2,2.3L3.1,2.4L2.9,2.5L2.8,2.6L2.7,2.8L2.6,2.9L2.5,3
	L2.4,3.2L2.3,3.4L2.2,3.5L2.1,3.7l0,0.2L2,4l0,0.2l0,0.2l0,0.2l0,0.2V5v0.2H0V4.9V4.7l0-0.2l0-0.2l0-0.2l0.1-0.2l0.1-0.2l0.1-0.2
	L0.5,3l0.1-0.2l0.1-0.2l0.2-0.2L1,2.1L1.1,2l0.2-0.2l0.2-0.2l0.2-0.2l0.2-0.2L2,1.2l0.1-0.1L2.2,1L2.4,1l0.1-0.1l0.1-0.1l0.1-0.1
	l0.1-0.1l0.1-0.1l0.2-0.1l0.1,0l0.1-0.1l0.2-0.1l0.1,0l0.2-0.1l0.2,0l0.1,0l0.2,0l0.2,0l0.2,0l0.2,0l0.1,0h0.2l0.2,0h0.2l0.2,0h0.2
	H5.8z M0,5.2h1.8l0,47.2H0V5.2z M1.9,52.4 M0,52.4h1.9v0.4v0.4v0.5v0.4l0,0.4v0.5l0,0.4l0,0.4v0.5l0.1,0.4l0,0.5l0,0.4l0,0.4
	l0.1,0.5l0,0.4l0.1,0.5l0.1,0.4l0.1,0.4l0.1,0.5l0.1,0.4l0.1,0.4l0.1,0.5L3,62.6L3.1,63l0.1,0.5l0.1,0.4l0.1,0.4l0.1,0.4l0.1,0.5
	l0.1,0.4L4,66.1l0.2,0.4l0.1,0.4l0.2,0.4l0.2,0.5l0.2,0.4l0.2,0.4l0.2,0.4l0.2,0.4l0.2,0.4l0.2,0.4l0.2,0.4L6,71.2l0.2,0.4l0.2,0.4
	l0.2,0.4l0.2,0.4l0.2,0.4l0.2,0.4l0.2,0.4l0.2,0.4L8,75l0.2,0.4l0.2,0.4l0.3,0.4L9,76.6L9.3,77l0.3,0.4l0.3,0.4l0.3,0.4l0.3,0.4
	l0.3,0.4l0.3,0.4l0.3,0.4l0.3,0.4l0.3,0.4l0.3,0.4l0.4,0.4l0.3,0.4l0.4,0.4l0.3,0.4l0.4,0.4l0.4,0.4l0.4,0.4l0.4,0.4l0.4,0.4
	l0.4,0.3l0.4,0.4l0.4,0.3l0.4,0.4l0.4,0.3l0.4,0.3l0.4,0.4l0.4,0.3l0.4,0.3l0.4,0.3l0.4,0.3l0.4,0.3l0.4,0.3l0.5,0.3l0.4,0.3
	l0.5,0.3l0.5,0.3l0.5,0.3l0.5,0.3l0.5,0.3l0.5,0.3l0.5,0.3l0.5,0.3l0.5,0.3l0.5,0.3l0.5,0.3l0.5,0.3l0.5,0.3l0.5,0.3l0.6,0.2
	l0.6,0.3l0.6,0.2l0.6,0.3l0.6,0.2l0.5,0.2l0.6,0.2l0.6,0.2l0.6,0.2l0.6,0.2l0.6,0.2l0.6,0.2l0.6,0.2l0.6,0.2l0.6,0.2l0.7,0.2
	l0.6,0.2l0.6,0.2l0.7,0.2l0.7,0.2l0.7,0.2l0.7,0.2l0.7,0.2l-0.6,1.4l-0.7-0.2l-0.7-0.2l-0.7-0.2l-0.7-0.2L38.5,99l-0.7-0.2l-0.6-0.2
	l-0.7-0.2l-0.6-0.2l-0.7-0.2l-0.6-0.2L34,97.5l-0.6-0.2L32.8,97l-0.6-0.2l-0.6-0.2L31,96.3L30.4,96l-0.6-0.2l-0.6-0.3l-0.6-0.2
	L28.1,95l-0.6-0.3L27,94.4l-0.5-0.3l-0.6-0.3l-0.5-0.3l-0.6-0.3L24.3,93l-0.5-0.3l-0.5-0.3L22.8,92l-0.5-0.3l-0.5-0.3l-0.5-0.3
	l-0.5-0.3l-0.5-0.3l-0.5-0.3l-0.5-0.3L19,89.4l-0.4-0.3l-0.4-0.3l-0.5-0.3l-0.4-0.3l-0.4-0.4l-0.4-0.3L15.9,87l-0.4-0.3l-0.4-0.4
	l-0.4-0.4l-0.4-0.4l-0.4-0.4l-0.4-0.4l-0.4-0.4L12.8,84l-0.4-0.4l-0.4-0.4l-0.4-0.4l-0.4-0.4L11,82.1l-0.3-0.4l-0.4-0.4L10,80.9
	l-0.3-0.4l-0.3-0.4l-0.3-0.4l-0.3-0.4l-0.3-0.4l-0.3-0.4l-0.3-0.4l-0.3-0.4l-0.3-0.4l-0.3-0.4l-0.3-0.4L6.6,76l-0.2-0.4l-0.2-0.4
	l-0.3-0.4l-0.2-0.4l-0.2-0.4l-0.2-0.4L4.9,73l-0.2-0.4l-0.2-0.4l-0.2-0.4L4,71.3l-0.2-0.4l-0.2-0.5L3.5,70l-0.2-0.4l-0.2-0.5
	l-0.2-0.4l-0.2-0.5l-0.2-0.4l-0.2-0.5l-0.2-0.4l-0.2-0.5L2,66l-0.2-0.5l-0.1-0.4l-0.2-0.5l-0.1-0.5l-0.1-0.4l-0.1-0.5l-0.1-0.5
	l-0.1-0.4L1,61.9l-0.1-0.5L0.8,61l-0.1-0.4l-0.1-0.5l-0.1-0.5l-0.1-0.5l0-0.4l-0.1-0.5l0-0.5l0-0.5l-0.1-0.5l0-0.4V56l0-0.5l0-0.4
	l0-0.5v-0.5v-0.5v-0.4l0-0.5V52.4L0,52.4z M42.5,99.9l-0.3,0.1l-0.3-0.1H42.5z M41.9,99.9l0.6-1.4h-0.6l0.6-0.2l0.5-0.2l0.6-0.2
	l0.6-0.2l0.6-0.2l0.6-0.2l0.6-0.2l0.6-0.2l0.6-0.2l0.5-0.2l0.6-0.2l0.6-0.2l0.5-0.2l0.5-0.2l0.5-0.2l0.5-0.2l0.5-0.2l0.5-0.2
	l0.5-0.2l0.5-0.2l0.5-0.2l0.5-0.2l0.5-0.2l0.5-0.2l0.5-0.2l0.5-0.2l0.5-0.2l0.5-0.2l0.5-0.2l0.5-0.2l0.4-0.2l0.5-0.2L59,92l0.4-0.3
	l0.4-0.2l0.5-0.2l0.4-0.3l0.4-0.2l0.4-0.3l0.4-0.3l0.4-0.3l0.4-0.3l0.4-0.3l0.4-0.3l0.4-0.3l0.4-0.3l0.4-0.3l0.4-0.3l0.4-0.3
	l0.4-0.3l0.4-0.3l0.4-0.3l0.4-0.3l0.4-0.3l0.4-0.3l0.4-0.3l0.3-0.3l0.4-0.3l0.4-0.3l0.4-0.3l0.3-0.3l0.4-0.4l0.3-0.3l0.3-0.3
	l0.3-0.4l0.3-0.4l0.3-0.3l0.3-0.4l0.3-0.4l0.3-0.4l0.3-0.4l0.3-0.4l0.3-0.4L74,79l0.3-0.4l0.3-0.4l0.3-0.4l0.3-0.4l0.2-0.4l0.3-0.4
	l0.2-0.4l0.2-0.4l0.2-0.4l0.2-0.4l0.2-0.4l0.2-0.4l0.2-0.4l0.2-0.4l0.2-0.4l0.2-0.5l0.2-0.4l0.2-0.5l0.2-0.5l0.2-0.5l0.2-0.5
	l0.2-0.5l0.2-0.5l0.2-0.5l0.2-0.5l0.2-0.5l0.2-0.5l0.2-0.5l0.1-0.5l0.2-0.5l0.1-0.5l0.1-0.5l0.1-0.5l0.1-0.5l0.1-0.5l0.1-0.5
	l0.1-0.5l0.1-0.6l0.1-0.5l0.1-0.6l0.1-0.5l0.1-0.6l0-0.6l0.1-0.6l0-0.6l0-0.6l0.1-0.6l0-0.6v-0.6l0-0.6v-0.6l0-0.6v-0.6v-0.6h1.8
	v0.6v0.6v0.6l0,0.6l0,0.6v0.6l0,0.6l0,0.6l-0.1,0.6l0,0.6l-0.1,0.6l0,0.6l-0.1,0.6L83,60.6l-0.1,0.5l-0.1,0.6l-0.1,0.6l-0.1,0.5
	l-0.1,0.6l-0.1,0.5l-0.1,0.5l-0.2,0.5l-0.1,0.5l-0.1,0.5l-0.2,0.5L81.7,67l-0.2,0.5l-0.2,0.5l-0.2,0.5L81,68.9l-0.2,0.5l-0.2,0.5
	l-0.2,0.5l-0.2,0.5l-0.2,0.5L80,71.8l-0.2,0.5l-0.2,0.5l-0.2,0.5l-0.2,0.5l-0.2,0.5l-0.2,0.4L78.4,75l-0.2,0.4L78,75.9l-0.2,0.4
	l-0.2,0.4l-0.3,0.4L77,77.6L76.7,78l-0.3,0.4l-0.3,0.4l-0.3,0.4l-0.3,0.4L75.3,80L75,80.4l-0.3,0.4l-0.3,0.4l-0.3,0.4L73.8,82
	l-0.3,0.4l-0.3,0.4l-0.4,0.4l-0.3,0.4l-0.4,0.4l-0.3,0.4l-0.4,0.4l-0.4,0.3l-0.4,0.4l-0.4,0.3L70,86l-0.4,0.3l-0.4,0.3L68.9,87
	l-0.4,0.3l-0.4,0.3L67.8,88l-0.4,0.3L67,88.6l-0.4,0.3l-0.4,0.3l-0.4,0.3l-0.4,0.3l-0.4,0.3l-0.4,0.3l-0.4,0.3L63.6,91l-0.4,0.3
	l-0.4,0.3l-0.5,0.3l-0.4,0.3l-0.5,0.3L61,92.7l-0.5,0.2L60,93.2l-0.5,0.2l-0.5,0.2l-0.5,0.2l-0.5,0.2l-0.5,0.2l-0.5,0.2l-0.5,0.2
	l-0.5,0.2l-0.5,0.2l-0.5,0.2l-0.5,0.2l-0.5,0.2l-0.5,0.2l-0.6,0.2l-0.5,0.2l-0.5,0.2l-0.6,0.2L51,97.3l-0.5,0.2l-0.5,0.2l-0.5,0.2
	l-0.6,0.2l-0.6,0.2l-0.6,0.2l-0.6,0.2l-0.6,0.2L46,99l-0.6,0.2l-0.6,0.2l-0.5,0.2l-0.6,0.2l-0.6,0.2l-0.6,0.2H41.9z M81.7,52.5
	l0-47.3h1.8l0,47.3H81.7z M83.6,5.2h-1.8V5V4.8l0-0.2l0-0.2l0-0.2l0-0.2l-0.1-0.2l0-0.2l-0.1-0.2l-0.1-0.2l-0.1-0.2l-0.1-0.2L81,2.9
	l-0.1-0.2l-0.1-0.1l-0.1-0.1l-0.2-0.2l-0.1-0.1l-0.2-0.1L80,2.1L79.9,2l-0.2-0.1l0,0l-0.1-0.1l-0.1,0l-0.1,0l-0.1,0l-0.1,0l-0.1,0
	l-0.1,0l-0.1,0l-0.1,0h-0.1l-0.1,0l-0.1,0h-0.1h-0.1l-0.1,0h-0.1h-0.1h-0.1H78V0h0.2h0.1h0.2l0.2,0h0.2l0.2,0l0.2,0l0.1,0l0.2,0
	l0.2,0l0.1,0l0.2,0.1l0.1,0l0.2,0.1l0.1,0l0.1,0.1l0.2,0.1l0.1,0.1l0.1,0.1l0.1,0.1l0.2,0.2L81.3,1l0.2,0.2l0.2,0.2l0.2,0.2l0.2,0.2
	l0.2,0.2L82.4,2l0.2,0.2l0.1,0.2l0.2,0.2L83,2.9l0.1,0.2l0.1,0.2l0.1,0.2l0.1,0.2l0,0.2l0.1,0.2l0,0.2l0,0.2v0.2V5.2z M78,1.4
	l-72.3,0V0L78,0V1.4z"/>
</svg>
